<?xml version="1.0" encoding="UTF-8" standalone="no"?>
<!DOCTYPE svg PUBLIC "-//W3C//DTD SVG 1.1//EN" "http://www.w3.org/Graphics/SVG/1.1/DTD/svg11.dtd">
<svg width="100%" height="100%" viewBox="0 0 29 28" version="1.1" xmlns="http://www.w3.org/2000/svg" xmlns:xlink="http://www.w3.org/1999/xlink" xml:space="preserve" xmlns:serif="http://www.serif.com/" style="fill-rule:evenodd;clip-rule:evenodd;stroke-linejoin:round;stroke-miterlimit:2;">
    <g transform="matrix(1,0,0,1,-67.848,-32.364)">
        <path d="M81.568,32.919C81.595,32.942 81.619,32.968 81.644,32.993C81.665,33.017 81.689,33.04 81.712,33.061C82.146,33.449 82.607,33.662 83.01,33.662C83.408,33.662 83.745,33.464 84.011,33.076C84.155,32.866 84.27,32.615 84.34,32.364L84.326,32.364C84.256,32.613 84.143,32.86 84.001,33.069C83.736,33.453 83.403,33.649 83.01,33.649C82.61,33.649 82.152,33.436 81.72,33.052C81.697,33.032 81.676,33.008 81.652,32.984C81.628,32.958 81.603,32.933 81.577,32.909C81.383,32.739 81.174,32.582 80.972,32.431C80.941,32.409 80.912,32.387 80.882,32.364L80.86,32.364C80.895,32.39 80.93,32.415 80.965,32.442C81.167,32.593 81.375,32.749 81.568,32.919Z" style="fill-rule:nonzero;"/>
        <path d="M68.703,34.178C68.984,33.916 69.275,33.645 69.462,33.257C69.556,33.06 69.648,32.748 69.691,32.364L69.678,32.364C69.636,32.747 69.543,33.056 69.45,33.252C69.266,33.636 68.976,33.907 68.694,34.168C68.367,34.473 68.029,34.787 67.862,35.283C67.856,35.297 67.852,35.312 67.848,35.328L67.848,35.372C67.856,35.342 67.865,35.314 67.874,35.288C68.041,34.794 68.378,34.481 68.703,34.178Z" style="fill-rule:nonzero;"/>
        <path d="M82.914,33.058C83.052,33.058 83.186,33.01 83.309,32.916C83.424,32.83 83.481,32.741 83.54,32.649C83.564,32.61 83.591,32.57 83.621,32.529C83.645,32.475 83.664,32.419 83.681,32.364L83.667,32.364C83.65,32.418 83.632,32.47 83.61,32.521C83.579,32.562 83.554,32.602 83.529,32.642C83.471,32.734 83.414,32.82 83.302,32.906C83.179,32.998 83.05,33.045 82.914,33.045C82.552,33.045 82.204,32.723 81.897,32.44C81.869,32.414 81.843,32.389 81.815,32.364L81.796,32.364C81.826,32.392 81.856,32.419 81.888,32.449C82.196,32.735 82.547,33.058 82.914,33.058Z" style="fill-rule:nonzero;"/>
        <path d="M68.085,36.464C68.15,36.126 68.211,35.807 68.305,35.581C68.463,35.197 68.792,34.873 69.14,34.531C69.355,34.321 69.575,34.104 69.762,33.865C69.995,33.567 70.151,33.309 70.282,33.004C70.359,32.825 70.426,32.618 70.49,32.418C70.496,32.4 70.503,32.381 70.508,32.364L70.494,32.364C70.489,32.38 70.483,32.397 70.478,32.414C70.414,32.614 70.348,32.821 70.271,32.999C70.14,33.303 69.984,33.56 69.751,33.857C69.564,34.094 69.344,34.312 69.131,34.521C68.781,34.866 68.451,35.19 68.292,35.577C68.198,35.803 68.137,36.123 68.072,36.462C68.01,36.789 67.945,37.126 67.85,37.373C67.849,37.374 67.848,37.376 67.848,37.378L67.848,37.413C67.852,37.4 67.857,37.389 67.862,37.377C67.959,37.129 68.023,36.791 68.085,36.464Z" style="fill-rule:nonzero;"/>
        <path d="M69.151,40.675C69.606,40.857 70.17,41.081 70.386,41.541C70.4,41.792 70.313,42.006 70.219,42.232C70.087,42.548 69.938,42.907 70.022,43.467C70.086,43.893 70.336,44.166 70.626,44.483C70.746,44.614 70.868,44.748 70.985,44.902C71.291,45.304 71.5,45.758 71.662,46.15C71.825,46.54 71.953,46.847 72.381,46.95C72.637,47.011 72.994,47.054 73.239,47.08C73.375,47.094 73.501,47.102 73.614,47.102C73.803,47.102 73.965,47.081 74.102,47.041C74.392,46.956 74.576,46.719 74.809,46.42C74.878,46.331 74.949,46.241 75.03,46.144C75.085,46.078 75.157,46.005 75.234,45.927C75.395,45.766 75.56,45.599 75.606,45.465C75.622,45.414 75.617,45.367 75.613,45.313C75.609,45.272 75.606,45.227 75.61,45.173L75.611,45.17L75.609,45.168C75.454,44.963 75.266,44.799 75.083,44.639C74.773,44.368 74.48,44.112 74.369,43.691C74.311,43.469 74.332,43.232 74.434,42.965C74.542,42.684 74.794,42.374 75.146,42.095C75.304,41.969 75.472,41.838 75.649,41.699C76.465,41.063 77.39,40.342 77.895,39.714L77.896,39.71C77.912,39.633 77.906,39.545 77.884,39.449C77.818,39.185 77.612,38.872 77.317,38.588C77.036,38.32 76.717,38.119 76.462,38.048C76.441,38.042 76.401,38.032 76.358,38.023C76.019,37.947 75.666,37.999 75.326,38.05C75.032,38.094 74.753,38.136 74.482,38.101C73.897,38.024 73.477,37.632 73.328,37.027C73.133,36.232 73.673,35.733 74.195,35.249C74.58,34.892 74.98,34.524 75.084,34.038C75.184,33.58 75.054,33.085 74.968,32.758C74.934,32.626 74.892,32.495 74.847,32.364L74.833,32.364C74.879,32.496 74.92,32.628 74.955,32.762C75.04,33.087 75.17,33.58 75.071,34.035C74.968,34.517 74.57,34.884 74.186,35.24C73.661,35.725 73.118,36.227 73.315,37.03C73.465,37.64 73.892,38.036 74.481,38.113C74.753,38.148 75.032,38.107 75.328,38.063C75.667,38.012 76.018,37.96 76.356,38.036C76.397,38.044 76.439,38.055 76.459,38.061C76.965,38.2 77.731,38.883 77.87,39.451C77.895,39.546 77.898,39.632 77.884,39.706C77.379,40.333 76.456,41.054 75.642,41.689C75.463,41.828 75.295,41.958 75.137,42.084C74.784,42.366 74.53,42.676 74.422,42.961C74.319,43.23 74.298,43.469 74.356,43.694C74.469,44.119 74.763,44.377 75.074,44.65C75.256,44.808 75.442,44.972 75.598,45.174C75.593,45.228 75.597,45.273 75.6,45.314C75.606,45.367 75.609,45.412 75.593,45.46C75.548,45.591 75.385,45.758 75.225,45.918C75.148,45.996 75.075,46.069 75.021,46.135C74.939,46.231 74.867,46.323 74.798,46.413C74.566,46.709 74.384,46.944 74.098,47.029C73.88,47.093 73.6,47.106 73.241,47.067C72.995,47.04 72.639,46.998 72.384,46.937C71.963,46.837 71.835,46.532 71.674,46.145C71.511,45.752 71.303,45.297 70.996,44.893C70.879,44.74 70.756,44.605 70.637,44.474C70.348,44.16 70.099,43.887 70.035,43.465C69.951,42.909 70.1,42.552 70.231,42.237C70.324,42.009 70.414,41.794 70.399,41.54L70.398,41.537C70.18,41.073 69.612,40.845 69.156,40.665C69.032,40.615 68.904,40.564 68.765,40.534C68.442,40.464 68.136,40.426 67.848,40.415L67.848,40.428C68.135,40.438 68.44,40.478 68.762,40.546C68.9,40.576 69.028,40.626 69.151,40.675Z" style="fill-rule:nonzero;"/>
        <path d="M75.775,32.744C75.811,32.878 75.852,33.013 75.892,33.145C75.978,33.435 76.059,33.709 76.091,33.955C76.115,34.129 76.115,34.31 76.092,34.436C76.024,34.815 75.77,35.11 75.523,35.396C75.241,35.723 74.949,36.063 74.927,36.535C74.957,36.955 75.431,37.016 75.932,37.08C76.023,37.092 76.119,37.104 76.211,37.119C76.578,37.177 77.001,37.294 77.434,37.456C77.585,37.514 77.731,37.585 77.872,37.655C78.142,37.789 78.397,37.915 78.694,37.949C78.732,37.953 78.771,37.955 78.811,37.955C79.013,37.955 79.189,37.898 79.339,37.844C79.491,37.79 79.622,37.733 79.749,37.675C80.022,37.555 80.278,37.442 80.675,37.407C80.745,37.399 80.817,37.396 80.889,37.396C81.319,37.396 81.68,37.509 82.029,37.619C82.33,37.714 82.616,37.803 82.912,37.803C82.971,37.803 83.029,37.8 83.085,37.792C83.534,37.736 83.88,37.503 84.14,37.081C84.369,36.707 84.501,36.236 84.611,35.782C84.644,35.649 84.7,35.4 84.72,35.219C84.739,35.049 84.713,34.925 84.638,34.839C84.502,34.682 84.23,34.672 83.914,34.663C83.771,34.658 83.623,34.653 83.476,34.633C82.855,34.553 82.334,34.473 81.758,34.232C81.283,34.035 80.809,33.788 80.493,33.617C79.964,33.327 79.364,32.968 78.941,32.364L78.926,32.364C79.351,32.974 79.953,33.337 80.487,33.628C80.802,33.8 81.276,34.046 81.752,34.245C82.329,34.485 82.852,34.566 83.474,34.647C83.621,34.665 83.77,34.67 83.913,34.676C84.226,34.686 84.496,34.695 84.629,34.848C84.7,34.931 84.727,35.052 84.707,35.218C84.687,35.398 84.631,35.646 84.599,35.779C84.38,36.682 84.065,37.657 83.083,37.78C83.027,37.787 82.97,37.79 82.912,37.79C82.618,37.79 82.334,37.701 82.032,37.606C81.683,37.497 81.321,37.383 80.889,37.383C80.817,37.383 80.745,37.386 80.674,37.393C80.275,37.428 80.018,37.543 79.744,37.665C79.617,37.72 79.486,37.779 79.335,37.832C79.186,37.885 79.01,37.941 78.811,37.941C78.772,37.941 78.733,37.939 78.696,37.935C78.401,37.903 78.147,37.777 77.878,37.644C77.736,37.574 77.591,37.501 77.439,37.445C77.005,37.282 76.581,37.165 76.214,37.106C76.121,37.091 76.025,37.079 75.934,37.068C75.439,37.003 74.97,36.943 74.939,36.534C74.962,36.069 75.253,35.731 75.533,35.404C75.781,35.118 76.036,34.82 76.106,34.439C76.129,34.311 76.127,34.129 76.105,33.953C76.071,33.706 75.989,33.432 75.903,33.142C75.864,33.01 75.824,32.873 75.787,32.74C75.764,32.653 75.739,32.564 75.714,32.478C75.703,32.441 75.693,32.402 75.682,32.364L75.668,32.364C75.68,32.404 75.691,32.443 75.701,32.482C75.727,32.568 75.751,32.656 75.775,32.744Z" style="fill-rule:nonzero;"/>
        <path d="M68.758,33.232C68.891,33.026 69.01,32.778 69.012,32.364L68.999,32.364C68.996,32.774 68.879,33.021 68.747,33.225C68.579,33.484 68.337,33.639 68.079,33.804C68.002,33.854 67.924,33.904 67.848,33.957L67.848,33.973C67.926,33.918 68.007,33.867 68.086,33.816C68.344,33.65 68.588,33.494 68.758,33.232Z" style="fill-rule:nonzero;"/>
        <path d="M76.631,33.535C76.71,33.712 76.793,33.894 76.82,34.084C76.897,34.606 76.628,34.945 76.368,35.274C76.189,35.498 76.022,35.708 75.971,35.968C75.957,36.034 75.961,36.074 75.964,36.125C75.966,36.153 75.968,36.182 75.968,36.222L75.968,36.224C76.034,36.409 76.232,36.539 76.388,36.615C76.948,36.892 77.861,37.023 78.527,37.119C78.628,37.132 78.728,37.14 78.831,37.14C79.09,37.14 79.33,37.096 79.584,37.05C79.856,37.001 80.137,36.95 80.461,36.95C80.547,36.95 80.635,36.954 80.72,36.96C80.737,36.962 80.786,36.965 80.849,36.969C80.94,36.974 81.056,36.98 81.137,36.987C81.408,37.007 81.623,37.055 81.83,37.102C82.107,37.164 82.367,37.222 82.753,37.222C82.793,37.222 82.835,37.221 82.877,37.22C83.184,37.172 83.465,36.849 83.577,36.415C83.67,36.057 83.648,35.581 83.311,35.317C82.913,35.007 81.755,34.736 81.133,34.686C81,34.674 80.89,34.673 80.783,34.673C80.664,34.672 80.542,34.671 80.382,34.658C79.953,34.619 79.599,34.45 79.195,34.092C78.696,33.649 78.426,33.306 78.039,32.627C77.997,32.554 77.958,32.464 77.922,32.364L77.907,32.364C77.945,32.466 77.984,32.559 78.028,32.633C78.415,33.314 78.686,33.657 79.188,34.102C79.592,34.461 79.949,34.631 80.381,34.67C80.541,34.685 80.664,34.686 80.783,34.686C80.895,34.687 80.999,34.688 81.132,34.699C81.752,34.749 82.906,35.019 83.304,35.328C83.636,35.586 83.655,36.058 83.564,36.413C83.454,36.84 83.176,37.16 82.875,37.207C82.834,37.208 82.793,37.209 82.753,37.209C82.37,37.209 82.108,37.15 81.833,37.089C81.625,37.042 81.41,36.995 81.138,36.974C81.057,36.968 80.941,36.96 80.85,36.956C80.787,36.953 80.738,36.95 80.721,36.949C80.635,36.94 80.548,36.937 80.461,36.937C80.136,36.937 79.854,36.988 79.582,37.038C79.328,37.083 79.089,37.126 78.831,37.126C78.728,37.126 78.629,37.121 78.529,37.106C77.864,37.01 76.952,36.88 76.394,36.603C76.241,36.529 76.046,36.401 75.981,36.22C75.981,36.181 75.979,36.152 75.978,36.124C75.973,36.074 75.97,36.035 75.983,35.97C76.035,35.715 76.201,35.504 76.378,35.282C76.641,34.952 76.911,34.61 76.833,34.082C76.805,33.891 76.723,33.706 76.643,33.53C76.611,33.46 76.578,33.388 76.55,33.316C76.447,33.061 76.327,32.718 76.251,32.364L76.238,32.364C76.315,32.72 76.436,33.066 76.538,33.322C76.566,33.393 76.599,33.465 76.631,33.535Z" style="fill-rule:nonzero;"/>
        <path d="M69.201,38.801C69.382,38.6 69.542,38.385 69.712,38.159C69.981,37.799 70.26,37.428 70.619,37.122C70.645,37.098 70.67,37.073 70.693,37.047C70.715,37.024 70.738,37 70.762,36.979C70.996,36.772 71.265,36.606 71.523,36.447C71.703,36.335 71.89,36.221 72.064,36.092C72.203,35.99 72.343,35.882 72.477,35.779C72.681,35.621 72.892,35.458 73.105,35.312C73.205,35.243 73.31,35.176 73.421,35.106C73.964,34.759 74.579,34.367 74.673,33.657C74.723,33.282 74.624,32.798 74.414,32.364L74.4,32.364C74.61,32.797 74.709,33.281 74.66,33.656C74.566,34.36 73.954,34.75 73.413,35.094C73.303,35.165 73.198,35.232 73.098,35.3C72.884,35.448 72.673,35.611 72.47,35.768C72.335,35.872 72.196,35.979 72.056,36.081C71.882,36.209 71.696,36.325 71.517,36.435C71.257,36.596 70.988,36.762 70.754,36.969C70.729,36.991 70.706,37.016 70.684,37.039C70.66,37.063 70.637,37.089 70.61,37.111C70.25,37.418 69.971,37.79 69.702,38.15C69.532,38.377 69.371,38.591 69.191,38.791C68.834,39.19 68.361,39.459 67.848,39.567L67.848,39.581C68.365,39.471 68.842,39.201 69.201,38.801Z" style="fill-rule:nonzero;"/>
        <path d="M68.4,38.295C68.575,38.04 68.576,37.578 68.558,37.203C68.543,36.9 68.548,36.322 68.746,35.841C68.899,35.474 69.263,35.147 69.614,34.832C69.668,34.784 69.721,34.736 69.772,34.688C70.477,34.046 70.826,33.469 71.134,32.802C71.16,32.746 71.183,32.685 71.205,32.626C71.232,32.553 71.262,32.479 71.298,32.407C71.305,32.392 71.313,32.377 71.319,32.364L71.305,32.364C71.299,32.377 71.292,32.388 71.285,32.4C71.249,32.473 71.221,32.548 71.193,32.622C71.171,32.68 71.148,32.74 71.121,32.796C70.814,33.463 70.467,34.039 69.764,34.679C69.712,34.727 69.658,34.774 69.606,34.822C69.253,35.138 68.888,35.465 68.734,35.836C68.535,36.319 68.53,36.9 68.545,37.203C68.564,37.577 68.562,38.037 68.39,38.289C68.265,38.469 68.065,38.598 67.848,38.708L67.848,38.723C68.069,38.611 68.272,38.481 68.4,38.295Z" style="fill-rule:nonzero;"/>
        <path d="M68.042,32.722C68.127,32.634 68.163,32.498 68.163,32.364L68.148,32.364C68.148,32.496 68.112,32.63 68.033,32.713C67.978,32.771 67.914,32.802 67.848,32.802L67.848,32.801L67.848,32.815C67.917,32.815 67.984,32.783 68.042,32.722Z" style="fill-rule:nonzero;"/>
        <path d="M72.054,32.571C71.868,32.79 71.732,33.088 71.602,33.377C71.581,33.421 71.562,33.464 71.542,33.508C71.351,33.92 71.113,34.434 70.854,34.785C70.713,34.976 70.481,35.114 70.234,35.259C69.886,35.465 69.525,35.679 69.385,36.072C69.334,36.213 69.333,36.369 69.383,36.563C69.432,36.671 69.517,36.726 69.634,36.726C69.827,36.726 70.056,36.577 70.149,36.497C70.336,36.339 70.5,36.122 70.657,35.91C70.742,35.797 70.829,35.679 70.919,35.572C70.963,35.522 71.113,35.35 71.239,35.276C71.538,35.1 71.921,34.965 72.326,34.823C72.89,34.625 73.471,34.421 73.833,34.089C74.026,33.915 74.141,33.642 74.15,33.341C74.159,33.019 74.048,32.713 73.834,32.479C73.796,32.438 73.755,32.398 73.711,32.364L73.689,32.364C73.736,32.401 73.782,32.443 73.824,32.489C74.035,32.719 74.147,33.022 74.137,33.34C74.129,33.637 74.015,33.908 73.825,34.08C73.464,34.409 72.883,34.613 72.322,34.81C71.916,34.953 71.533,35.087 71.233,35.264C71.104,35.341 70.953,35.513 70.91,35.564C70.818,35.67 70.731,35.789 70.647,35.903C70.489,36.113 70.327,36.33 70.142,36.486C70.049,36.565 69.823,36.713 69.634,36.713C69.522,36.713 69.441,36.662 69.395,36.558C69.347,36.369 69.348,36.215 69.397,36.076C69.536,35.688 69.895,35.476 70.241,35.271C70.488,35.124 70.722,34.986 70.865,34.791C71.124,34.441 71.361,33.926 71.554,33.514C71.573,33.47 71.593,33.426 71.613,33.382C71.744,33.094 71.88,32.797 72.064,32.58C72.134,32.497 72.215,32.425 72.304,32.364L72.281,32.364C72.197,32.423 72.12,32.493 72.054,32.571Z" style="fill-rule:nonzero;"/>
        <path d="M77.881,35.322C78.078,35.373 78.257,35.434 78.306,35.621C78.33,35.72 78.31,35.818 78.243,35.903C78.133,36.045 77.904,36.142 77.676,36.142C77.516,36.142 77.376,36.093 77.283,36.006L77.281,36.001C77.268,35.967 77.254,35.932 77.231,35.906C77.197,35.526 77.641,35.358 77.881,35.322ZM77.218,35.912L77.219,35.914C77.242,35.938 77.256,35.972 77.269,36.005L77.272,36.012L77.273,36.016C77.369,36.105 77.512,36.155 77.676,36.155C77.909,36.155 78.141,36.056 78.254,35.911C78.322,35.822 78.344,35.721 78.318,35.618C78.269,35.424 78.084,35.361 77.883,35.309L77.882,35.308L77.881,35.309C77.539,35.359 77.186,35.568 77.218,35.91L77.218,35.912Z" style="fill-rule:nonzero;"/>
        <path d="M81.481,35.593C81.769,35.593 82.03,35.677 82.161,35.81C82.229,35.88 82.262,35.96 82.261,36.05C82.171,36.314 81.824,36.353 81.627,36.353C81.323,36.353 80.981,36.266 80.771,36.136L80.769,36.13C80.755,36.097 80.742,36.062 80.719,36.037C80.726,35.732 81.118,35.593 81.481,35.593ZM80.756,36.136L80.761,36.145L80.763,36.146C80.973,36.278 81.32,36.366 81.627,36.366C81.829,36.366 82.182,36.326 82.273,36.053L82.273,36.052C82.275,35.957 82.241,35.873 82.17,35.801C82.037,35.665 81.772,35.581 81.481,35.581C81.11,35.581 80.711,35.723 80.705,36.04L80.705,36.041L80.708,36.043C80.731,36.068 80.744,36.103 80.756,36.136Z" style="fill-rule:nonzero;"/>
        <path d="M71.471,40.723C71.432,40.567 71.391,40.405 71.371,40.215C71.357,40.089 71.351,39.917 71.371,39.811C71.426,39.537 71.761,39.202 72.115,38.879C72.328,38.687 72.606,38.46 72.865,38.419C72.898,38.415 72.935,38.413 72.976,38.413C73.17,38.413 73.416,38.472 73.653,38.531C73.831,38.574 74,38.615 74.134,38.627C74.2,38.633 74.269,38.636 74.339,38.636C74.622,38.636 74.895,38.587 75.157,38.539C75.401,38.496 75.631,38.454 75.853,38.454C76.111,38.454 76.32,38.511 76.51,38.633C76.841,38.848 76.931,39.147 76.979,39.441C76.903,40.059 76.451,40.47 76.051,40.834C75.785,41.074 75.507,41.265 75.237,41.451C74.986,41.623 74.729,41.8 74.476,42.02C73.88,42.535 73.58,43.262 73.675,43.965C73.699,44.146 73.766,44.334 73.83,44.518C73.895,44.701 73.961,44.89 73.983,45.069C74.026,45.386 73.97,45.634 73.817,45.807C73.682,45.962 73.472,46.047 73.224,46.047C72.978,46.047 72.723,45.961 72.542,45.819C72.417,45.718 72.316,45.592 72.235,45.483C71.885,45.009 71.595,44.364 71.348,43.509C71.316,43.021 71.394,42.692 71.469,42.376C71.517,42.174 71.561,41.983 71.577,41.757C71.612,41.293 71.541,41.003 71.471,40.723ZM71.455,42.373C71.381,42.69 71.304,43.02 71.335,43.512C71.582,44.369 71.874,45.015 72.225,45.491C72.307,45.601 72.407,45.727 72.534,45.829C72.716,45.974 72.975,46.06 73.224,46.06C73.475,46.06 73.689,45.974 73.828,45.815C73.982,45.64 74.039,45.388 73.997,45.067C73.973,44.887 73.907,44.698 73.843,44.514C73.778,44.331 73.712,44.143 73.689,43.963C73.594,43.265 73.893,42.541 74.484,42.029C74.735,41.81 74.995,41.633 75.244,41.462C75.515,41.276 75.794,41.083 76.059,40.843C76.461,40.479 76.916,40.065 76.991,39.441L76.991,39.438C76.943,39.143 76.852,38.839 76.516,38.623C76.325,38.498 76.114,38.441 75.853,38.441C75.629,38.441 75.399,38.483 75.155,38.527C74.893,38.574 74.621,38.623 74.339,38.623C74.27,38.623 74.201,38.62 74.136,38.615C74.002,38.602 73.833,38.561 73.656,38.517C73.418,38.459 73.171,38.399 72.976,38.399C72.935,38.399 72.897,38.402 72.863,38.408C72.6,38.448 72.32,38.676 72.106,38.871C71.75,39.194 71.414,39.531 71.358,39.808C71.337,39.916 71.344,40.09 71.357,40.216C71.377,40.408 71.419,40.57 71.458,40.726C71.527,41.005 71.6,41.294 71.564,41.756C71.547,41.981 71.503,42.172 71.455,42.373Z" style="fill-rule:nonzero;"/>
        <path d="M72.255,40.901C72.293,40.394 72.432,40.017 72.689,39.712C73.05,39.284 73.394,39.249 74.019,39.185C74.064,39.181 74.108,39.176 74.156,39.171C74.385,39.147 74.61,39.106 74.81,39.07C74.988,39.038 75.158,39.005 75.307,38.992C75.374,38.985 75.439,38.981 75.501,38.981C75.957,38.981 76.14,39.162 76.213,39.313C76.327,39.553 76.249,39.902 76.011,40.199C75.954,40.243 75.91,40.298 75.867,40.352C75.811,40.426 75.758,40.495 75.675,40.535L75.673,40.536C75.408,40.784 75.108,40.988 74.792,41.203C74.341,41.51 73.876,41.827 73.461,42.306C73.387,42.39 73.318,42.488 73.251,42.582C73.065,42.843 72.891,43.09 72.617,43.11C72.393,42.992 72.355,42.75 72.317,42.518C72.307,42.454 72.298,42.394 72.285,42.337C72.283,42.205 72.274,42.056 72.267,41.898C72.25,41.583 72.231,41.226 72.255,40.901ZM72.272,42.339C72.285,42.397 72.294,42.456 72.305,42.52C72.34,42.745 72.382,43.001 72.612,43.123L72.616,43.123C72.897,43.104 73.073,42.854 73.261,42.59C73.328,42.497 73.397,42.399 73.471,42.314C73.884,41.836 74.35,41.52 74.8,41.213C75.116,40.998 75.416,40.793 75.681,40.546C75.766,40.504 75.823,40.431 75.878,40.361C75.92,40.308 75.963,40.251 76.02,40.208C76.262,39.906 76.342,39.551 76.224,39.307C76.149,39.153 75.964,38.968 75.501,38.968C75.439,38.968 75.373,38.972 75.306,38.978C75.157,38.993 74.986,39.024 74.808,39.057C74.608,39.093 74.383,39.134 74.155,39.159C74.107,39.164 74.063,39.167 74.018,39.173C73.41,39.234 73.044,39.273 72.679,39.703C72.419,40.01 72.28,40.39 72.241,40.9C72.218,41.226 72.236,41.583 72.253,41.898C72.262,42.056 72.27,42.206 72.272,42.339Z" style="fill-rule:nonzero;"/>
        <path d="M81.107,39.207C81.226,39.128 81.445,39.09 81.78,39.09C82.093,39.09 82.468,39.124 82.798,39.155C83.008,39.173 83.207,39.192 83.375,39.2C84.084,39.235 84.753,39.269 85.265,39.712C85.594,39.997 85.858,40.291 85.774,41.023C85.736,41.355 85.583,41.757 85.422,42.184C85.394,42.259 85.364,42.334 85.337,42.411C85.319,42.455 85.303,42.499 85.287,42.544C85.142,42.938 85.016,43.278 84.77,43.569C84.488,43.902 84.115,44.071 83.659,44.071C82.911,44.071 82.126,43.623 81.643,43.203C80.922,42.581 80.829,41.706 80.731,40.781L80.718,40.671C80.669,40.341 80.61,39.537 81.107,39.207ZM80.717,40.782C80.816,41.709 80.91,42.586 81.634,43.213C82.12,43.634 82.906,44.082 83.659,44.082C84.118,44.082 84.495,43.913 84.78,43.577C85.026,43.285 85.153,42.944 85.299,42.548C85.314,42.504 85.331,42.46 85.348,42.415C85.377,42.338 85.405,42.263 85.434,42.189C85.596,41.761 85.749,41.359 85.787,41.024C85.872,40.287 85.605,39.99 85.273,39.703C84.758,39.256 84.087,39.223 83.376,39.187C83.208,39.178 83.009,39.161 82.799,39.141C82.468,39.111 82.094,39.078 81.78,39.078C81.442,39.078 81.221,39.116 81.101,39.196C80.597,39.53 80.657,40.341 80.705,40.673L80.717,40.782Z" style="fill-rule:nonzero;"/>
        <path d="M81.527,39.929C81.744,39.595 82.171,39.551 82.518,39.551C82.639,39.551 82.759,39.557 82.882,39.565C83.436,39.595 83.96,39.623 84.371,39.909C84.816,40.219 85.06,40.802 85.02,41.465C84.985,42.041 84.767,42.852 84.264,43.241C84.088,43.376 83.865,43.446 83.601,43.446C83.066,43.446 82.525,43.166 82.225,42.928C81.582,42.418 81.511,41.762 81.422,40.933C81.421,40.882 81.42,40.831 81.417,40.779C81.41,40.487 81.402,40.185 81.527,39.929ZM81.408,40.934C81.495,41.735 81.569,42.426 82.218,42.939C82.519,43.178 83.063,43.457 83.601,43.457C83.868,43.457 84.094,43.388 84.272,43.25C84.778,42.859 84.998,42.044 85.033,41.466C85.073,40.798 84.828,40.211 84.378,39.899C83.965,39.611 83.439,39.581 82.882,39.551C82.76,39.545 82.639,39.539 82.518,39.539C82.168,39.539 81.736,39.582 81.516,39.923C81.389,40.182 81.397,40.486 81.405,40.779C81.406,40.831 81.407,40.882 81.408,40.934Z" style="fill-rule:nonzero;"/>
        <path d="M73.658,40.267C73.918,39.997 74.354,39.901 74.674,39.901C74.732,39.901 74.79,39.904 74.844,39.91C74.858,39.926 74.874,39.942 74.889,39.956C74.91,39.976 74.931,39.997 74.946,40.02C74.918,40.18 74.778,40.309 74.659,40.403C74.354,40.645 73.936,40.836 73.568,40.902C73.546,40.889 73.527,40.87 73.509,40.849C73.492,40.831 73.476,40.814 73.456,40.799C73.449,40.594 73.516,40.415 73.658,40.267ZM73.442,40.806L73.445,40.808C73.465,40.821 73.481,40.839 73.498,40.857C73.519,40.878 73.539,40.901 73.564,40.914L73.565,40.915L73.568,40.915C73.939,40.849 74.359,40.657 74.667,40.414C74.789,40.317 74.932,40.185 74.96,40.02L74.961,40.017L74.959,40.014C74.942,39.99 74.919,39.968 74.898,39.947C74.882,39.931 74.866,39.916 74.852,39.9L74.851,39.897L74.848,39.897C74.793,39.891 74.733,39.888 74.674,39.888C74.352,39.888 73.912,39.986 73.648,40.258C73.504,40.41 73.435,40.592 73.442,40.803L73.442,40.806Z" style="fill-rule:nonzero;"/>
        <path d="M82.705,40.112C82.8,40.096 82.893,40.088 82.983,40.088C83.369,40.088 83.639,40.231 83.798,40.351C84.075,40.562 84.275,40.922 84.347,41.342C84.417,41.752 84.346,42.152 84.156,42.414C83.983,42.653 83.737,42.778 83.447,42.778C83.226,42.778 82.984,42.703 82.771,42.564C82.2,42.194 82.105,41.449 82.099,41.038C82.091,40.5 82.302,40.18 82.705,40.112ZM82.764,42.575C82.981,42.715 83.223,42.791 83.447,42.791C83.743,42.791 83.991,42.664 84.168,42.42C84.578,41.855 84.393,40.786 83.805,40.341C83.646,40.219 83.373,40.075 82.983,40.075C82.892,40.075 82.798,40.082 82.703,40.099C82.292,40.168 82.078,40.494 82.085,41.038C82.091,41.451 82.188,42.201 82.764,42.575Z" style="fill-rule:nonzero;"/>
        <path d="M69.491,46.22C69.545,46.318 69.597,46.412 69.658,46.489L69.661,46.492C69.746,46.602 69.891,46.786 70.092,46.755C70.309,46.723 70.595,46.465 70.543,46.086C70.502,45.784 70.299,45.562 69.903,45.389C69.878,45.378 69.853,45.367 69.826,45.356C69.636,45.276 69.455,45.2 69.372,45.018C69.286,44.659 69.27,44.174 69.251,43.66C69.236,43.234 69.221,42.792 69.163,42.416C69.053,41.691 68.682,41.259 68.028,41.094C67.972,41.08 67.911,41.066 67.848,41.057L67.848,41.071C67.91,41.08 67.97,41.092 68.025,41.107C68.673,41.269 69.041,41.699 69.15,42.418C69.207,42.794 69.223,43.235 69.238,43.661C69.256,44.175 69.273,44.661 69.359,45.023C69.445,45.21 69.628,45.287 69.821,45.368C69.848,45.379 69.873,45.389 69.898,45.401C70.289,45.571 70.489,45.79 70.529,46.088C70.58,46.458 70.302,46.71 70.09,46.742C69.897,46.771 69.755,46.591 69.671,46.485L69.668,46.482C69.607,46.404 69.556,46.312 69.502,46.214C69.333,45.909 69.158,45.592 68.658,45.675C68.422,45.713 68.156,45.839 67.848,46.057L67.848,46.074C68.158,45.853 68.424,45.726 68.66,45.688C69.151,45.607 69.324,45.919 69.491,46.22Z" style="fill-rule:nonzero;"/>
        <path d="M68.172,44.488C68.461,44.169 68.615,43.699 68.596,43.195C68.576,42.709 68.395,42.266 68.109,42.007C68.024,41.947 67.936,41.906 67.848,41.884L67.848,41.897C67.934,41.919 68.02,41.959 68.101,42.016C68.384,42.274 68.564,42.714 68.583,43.195C68.603,43.695 68.449,44.164 68.163,44.48C68.067,44.584 67.96,44.672 67.848,44.75L67.848,44.766C67.964,44.687 68.074,44.597 68.172,44.488Z" style="fill-rule:nonzero;"/>
        <path d="M78.78,45.667C78.254,45.667 77.638,45.419 77.283,45.065C77.137,44.919 77.024,44.744 76.913,44.562C76.666,44.157 76.44,43.715 76.241,43.248C76.244,43.206 76.235,43.167 76.226,43.131C76.22,43.108 76.214,43.083 76.211,43.061C76.255,42.567 76.937,42.004 77.491,42.004C77.54,42.004 77.587,42.008 77.631,42.017C77.834,42.059 78.1,42.22 78.42,42.498C78.888,42.904 79.532,43.62 79.807,44.303C79.84,44.385 79.88,44.489 79.894,44.575C79.947,44.919 79.814,45.215 79.5,45.453C79.313,45.594 79.07,45.667 78.78,45.667ZM79.905,44.573C79.893,44.486 79.853,44.381 79.819,44.298C79.544,43.613 78.897,42.894 78.428,42.488C78.106,42.209 77.838,42.046 77.633,42.005C77.589,41.996 77.541,41.991 77.491,41.991C76.931,41.991 76.242,42.561 76.199,43.061C76.201,43.085 76.207,43.111 76.214,43.134C76.222,43.171 76.231,43.208 76.228,43.248L76.228,43.25L76.229,43.251C76.428,43.72 76.655,44.163 76.902,44.568C77.014,44.751 77.126,44.927 77.273,45.075C77.63,45.431 78.251,45.681 78.78,45.681C79.073,45.681 79.318,45.607 79.509,45.463C79.827,45.222 79.961,44.922 79.905,44.573Z" style="fill-rule:nonzero;"/>
        <path d="M79.21,44.654C79.138,44.935 78.895,45.095 78.541,45.095C78.244,45.095 77.913,44.98 77.696,44.803C77.355,44.524 77.24,44.127 77.126,43.639C77.117,43.429 77.173,43.25 77.282,43.135C77.374,43.04 77.502,42.991 77.66,42.991C77.703,42.991 77.75,42.995 77.799,43.002C78.34,43.089 79.124,43.766 79.217,44.367C79.229,44.45 79.232,44.571 79.21,44.654ZM78.68,43.475C78.397,43.217 78.062,43.031 77.801,42.99C77.752,42.981 77.705,42.977 77.66,42.977C77.498,42.977 77.368,43.028 77.272,43.127C77.16,43.244 77.105,43.426 77.113,43.641C77.228,44.132 77.343,44.532 77.689,44.813C77.906,44.993 78.242,45.109 78.541,45.109C78.9,45.109 79.149,44.944 79.224,44.658C79.245,44.573 79.241,44.45 79.229,44.365C79.186,44.08 78.985,43.755 78.68,43.475Z" style="fill-rule:nonzero;"/>
        <path d="M81.969,48.188C81.92,48.3 81.869,48.415 81.821,48.554C81.741,48.789 81.708,49.025 81.675,49.253C81.638,49.514 81.603,49.759 81.501,49.962L81.486,49.986C81.377,50.15 81.283,50.29 81.141,50.399C80.961,50.536 80.721,50.607 80.447,50.607C80.029,50.607 79.609,50.431 79.381,50.16C79.221,49.968 79.157,49.74 79.2,49.498C79.272,49.159 79.557,48.96 79.856,48.75C80.132,48.557 80.415,48.357 80.522,48.04C80.593,47.831 80.559,47.598 80.522,47.351C80.482,47.085 80.442,46.811 80.539,46.566C80.675,46.215 81.087,45.861 81.496,45.742C81.575,45.719 81.646,45.708 81.72,45.708C81.752,45.708 81.785,45.71 81.82,45.715C82.077,45.92 82.15,46.42 82.186,46.832C82.245,47.555 82.118,47.848 81.969,48.188ZM81.828,45.704L81.826,45.703L81.823,45.702C81.787,45.697 81.753,45.695 81.72,45.695C81.645,45.695 81.572,45.706 81.493,45.729C81.08,45.849 80.664,46.207 80.526,46.561C80.429,46.81 80.47,47.085 80.509,47.352C80.545,47.599 80.579,47.831 80.511,48.035C80.404,48.349 80.122,48.547 79.849,48.739C79.56,48.942 79.261,49.151 79.188,49.497C79.144,49.742 79.208,49.974 79.371,50.167C79.602,50.442 80.024,50.621 80.447,50.621C80.724,50.621 80.966,50.546 81.148,50.409C81.292,50.3 81.392,50.151 81.496,49.994L81.513,49.968C81.616,49.763 81.65,49.517 81.688,49.254C81.72,49.027 81.753,48.791 81.834,48.558C81.882,48.42 81.933,48.304 81.981,48.194C82.131,47.853 82.259,47.557 82.197,46.831C82.162,46.415 82.089,45.911 81.828,45.704Z" style="fill-rule:nonzero;"/>
        <path d="M69.893,49.233C69.807,49.351 69.677,49.415 69.526,49.415C69.312,49.415 69.064,49.273 69.005,49C68.981,48.841 69.063,48.617 69.212,48.443C69.331,48.303 69.474,48.224 69.6,48.224C69.674,48.224 69.742,48.249 69.804,48.302C70.02,48.488 70.067,48.993 69.893,49.233ZM69.812,48.292C69.748,48.238 69.677,48.21 69.6,48.21C69.469,48.21 69.324,48.292 69.201,48.435C69.051,48.611 68.967,48.839 68.992,49.003C69.052,49.283 69.307,49.429 69.526,49.429C69.681,49.429 69.814,49.362 69.902,49.242C70.081,48.996 70.031,48.482 69.812,48.292Z" style="fill-rule:nonzero;"/>
        <path d="M74.24,50.383C74.147,50.383 74.071,50.335 74.029,50.249C74.022,50.166 74.052,50.084 74.114,50.016C74.181,49.945 74.274,49.901 74.365,49.901C74.423,49.901 74.479,49.92 74.526,49.955C74.532,49.977 74.544,49.998 74.555,50.017C74.566,50.04 74.579,50.061 74.583,50.084C74.566,50.255 74.389,50.383 74.24,50.383ZM74.565,50.011C74.556,49.992 74.544,49.971 74.539,49.949L74.537,49.945C74.486,49.909 74.427,49.888 74.365,49.888C74.271,49.888 74.174,49.933 74.105,50.008C74.04,50.079 74.009,50.165 74.016,50.252L74.017,50.254C74.063,50.346 74.141,50.397 74.24,50.397C74.395,50.397 74.58,50.263 74.597,50.085L74.597,50.083C74.592,50.057 74.578,50.034 74.565,50.011Z" style="fill-rule:nonzero;"/>
        <path d="M92.199,32.605C92.515,32.758 92.886,32.774 93.193,32.648C93.348,32.583 93.479,32.486 93.578,32.364L93.563,32.364C93.466,32.481 93.341,32.574 93.189,32.635C92.885,32.761 92.517,32.746 92.205,32.594C92.104,32.545 92.008,32.468 91.916,32.364L91.898,32.364C91.993,32.475 92.094,32.554 92.199,32.605Z" style="fill-rule:nonzero;"/>
        <path d="M81.013,33.141C81.136,33.228 81.253,33.321 81.366,33.41C81.641,33.624 81.899,33.826 82.185,33.921C82.504,34.081 82.81,34.161 83.101,34.161C83.342,34.161 83.573,34.106 83.791,33.996C84.434,33.672 84.796,32.966 84.935,32.364L84.921,32.364C84.782,32.961 84.424,33.664 83.785,33.984C83.308,34.224 82.771,34.199 82.189,33.91C81.905,33.815 81.647,33.613 81.374,33.398C81.261,33.31 81.144,33.218 81.02,33.13C80.887,33.036 80.749,32.944 80.615,32.856C80.373,32.695 80.136,32.538 79.927,32.364L79.905,32.364C80.118,32.542 80.36,32.703 80.608,32.867C80.742,32.956 80.88,33.046 81.013,33.141Z" style="fill-rule:nonzero;"/>
        <path d="M85.628,33.386C85.715,33.597 85.906,33.7 86.213,33.7C86.368,33.7 86.529,33.673 86.659,33.652L86.663,33.652C86.691,33.647 86.722,33.645 86.754,33.645C86.876,33.645 87.001,33.681 87.121,33.716C87.183,33.735 87.248,33.753 87.311,33.766C87.361,33.778 87.411,33.787 87.461,33.797C87.667,33.837 87.881,33.879 88.074,33.968C88.15,34.003 88.229,34.038 88.305,34.07C88.682,34.233 89.071,34.402 89.324,34.73C89.34,34.75 89.354,34.771 89.368,34.791C89.545,35.053 89.698,35.334 89.845,35.607C90.011,35.915 90.183,36.23 90.39,36.519C90.59,36.801 90.859,37.113 91.12,37.415C91.211,37.52 91.296,37.62 91.379,37.717C91.793,38.207 92.184,38.669 92.904,38.669L92.905,38.669C93.09,38.669 93.285,38.64 93.505,38.581C94.129,38.414 95.231,37.994 95.607,37.083C95.707,36.842 95.773,36.505 95.844,36.15C95.897,35.881 95.953,35.603 96.023,35.372L96.023,35.328C95.946,35.568 95.888,35.863 95.832,36.147C95.761,36.503 95.694,36.838 95.596,37.079C95.221,37.985 94.123,38.401 93.502,38.569C93.283,38.628 93.088,38.657 92.905,38.657L92.904,38.657C92.19,38.657 91.801,38.197 91.39,37.708C91.307,37.611 91.221,37.511 91.13,37.407C90.87,37.105 90.601,36.792 90.399,36.512C90.194,36.224 90.022,35.907 89.856,35.601C89.709,35.329 89.556,35.046 89.379,34.785C89.365,34.764 89.35,34.742 89.334,34.722C89.079,34.392 88.689,34.222 88.311,34.058C88.233,34.025 88.155,33.991 88.08,33.956C87.885,33.867 87.671,33.825 87.464,33.784C87.413,33.774 87.363,33.764 87.314,33.753C87.252,33.74 87.188,33.721 87.125,33.704C87.004,33.668 86.879,33.631 86.754,33.631C86.722,33.631 86.689,33.634 86.661,33.638L86.655,33.639C86.527,33.661 86.367,33.686 86.213,33.686C85.913,33.686 85.725,33.586 85.641,33.382C85.553,33.172 85.582,32.816 85.608,32.5C85.612,32.453 85.616,32.408 85.619,32.364L85.606,32.364C85.603,32.408 85.6,32.453 85.596,32.499C85.569,32.816 85.541,33.174 85.628,33.386Z" style="fill-rule:nonzero;"/>
        <path d="M91.029,32.764C91.417,33.29 92.106,33.602 92.87,33.602C93.061,33.602 93.245,33.582 93.419,33.544C94.099,33.394 94.316,32.93 94.413,32.364L94.4,32.364C94.37,32.543 94.328,32.711 94.263,32.863C94.106,33.226 93.836,33.439 93.417,33.532C93.243,33.57 93.06,33.589 92.87,33.589C92.109,33.589 91.426,33.278 91.04,32.756C90.997,32.645 90.961,32.51 90.926,32.364L90.912,32.364C90.947,32.512 90.985,32.649 91.028,32.763L91.029,32.764Z" style="fill-rule:nonzero;"/>
        <path d="M87.322,33.039C87.668,33.088 87.998,33.191 88.315,33.29C88.521,33.355 88.733,33.421 88.949,33.473C89.087,33.506 89.225,33.533 89.347,33.551C89.472,33.57 89.582,33.58 89.674,33.58C89.863,33.58 89.976,33.54 90.011,33.462C90.107,33.254 90.182,32.802 90.186,32.364L90.173,32.364C90.169,32.8 90.095,33.249 90,33.457C89.967,33.53 89.856,33.566 89.674,33.566C89.583,33.566 89.474,33.557 89.349,33.539C89.227,33.52 89.09,33.494 88.952,33.46C88.736,33.409 88.525,33.342 88.32,33.278C88.001,33.178 87.671,33.075 87.323,33.025C86.981,32.976 86.709,32.742 86.549,32.364L86.534,32.364C86.696,32.749 86.974,32.988 87.322,33.039Z" style="fill-rule:nonzero;"/>
        <path d="M94.939,32.702C94.921,33.182 94.905,33.598 94.586,33.843C94.254,34.1 93.674,34.173 93.25,34.226C93.208,34.232 93.166,34.238 93.127,34.243C93.055,34.252 92.978,34.257 92.899,34.257C92.468,34.257 92.008,34.112 91.563,33.972C91.164,33.848 90.753,33.718 90.368,33.696L90.367,33.696L90.366,33.697C90.147,33.759 90.092,33.994 90.113,34.192C90.176,34.966 90.448,35.6 91.057,36.38C91.179,36.537 91.294,36.696 91.404,36.85C91.594,37.11 91.772,37.357 91.98,37.589C92.291,37.94 92.682,38.116 93.142,38.116C93.675,38.116 94.274,37.868 94.787,37.433C95.315,36.861 95.395,36.103 95.431,35.375C95.434,35.319 95.435,35.26 95.437,35.197C95.444,34.905 95.453,34.54 95.597,34.361C95.723,34.203 95.871,34.081 96.023,33.973L96.023,33.957C95.867,34.067 95.716,34.19 95.586,34.354C95.44,34.536 95.432,34.902 95.423,35.196C95.421,35.259 95.42,35.319 95.417,35.374C95.382,36.099 95.303,36.856 94.777,37.424C94.268,37.856 93.672,38.104 93.142,38.104C92.686,38.104 92.297,37.927 91.989,37.581C91.782,37.348 91.604,37.103 91.415,36.841C91.305,36.688 91.189,36.53 91.067,36.373C90.461,35.594 90.189,34.961 90.127,34.19C90.106,33.998 90.157,33.77 90.369,33.709C90.751,33.732 91.161,33.86 91.559,33.985C92.005,34.124 92.466,34.27 92.899,34.27C92.978,34.27 93.056,34.264 93.129,34.255C93.168,34.249 93.21,34.245 93.252,34.24C93.677,34.186 94.26,34.112 94.593,33.854C94.918,33.604 94.934,33.187 94.952,32.702C94.956,32.601 94.959,32.497 94.966,32.392C94.968,32.382 94.968,32.373 94.969,32.364L94.955,32.364C94.955,32.373 94.954,32.381 94.954,32.391C94.946,32.497 94.942,32.6 94.939,32.702Z" style="fill-rule:nonzero;"/>
        <path d="M95.142,39.171L95.14,39.172C95.05,39.244 94.914,39.352 94.929,39.501L94.93,39.504L94.932,39.506C94.961,39.529 94.986,39.555 95.009,39.581L95.01,39.582L95.012,39.582C95.177,39.616 95.346,39.633 95.514,39.633C95.686,39.633 95.856,39.615 96.023,39.581L96.023,39.567C95.856,39.602 95.686,39.62 95.514,39.62C95.347,39.62 95.18,39.603 95.017,39.57C94.994,39.545 94.971,39.52 94.942,39.498C94.93,39.357 95.056,39.256 95.147,39.182L95.149,39.18C95.309,39.054 95.517,38.958 95.738,38.858C95.834,38.815 95.93,38.77 96.023,38.723L96.023,38.708C95.928,38.756 95.829,38.802 95.732,38.845C95.511,38.947 95.301,39.042 95.142,39.171Z" style="fill-rule:nonzero;"/>
        <path d="M95.71,32.474C95.725,32.655 95.871,32.815 96.023,32.815L96.023,32.801C95.877,32.801 95.737,32.648 95.724,32.473C95.72,32.435 95.72,32.399 95.723,32.364L95.71,32.364C95.707,32.399 95.706,32.436 95.71,32.474Z" style="fill-rule:nonzero;"/>
        <path d="M94.349,37.047C94.092,37.298 93.726,37.448 93.37,37.448C93.15,37.448 92.946,37.39 92.778,37.28C92.421,37.046 92.274,36.595 92.131,36.158C92.065,35.956 92.004,35.766 91.923,35.595C91.898,35.431 91.991,35.335 92.218,35.296C92.468,35.251 92.732,35.175 92.987,35.1C93.212,35.034 93.426,34.971 93.623,34.932C93.714,34.915 93.803,34.906 93.889,34.906C94.178,34.906 94.433,35.006 94.554,35.168C94.955,35.706 94.77,36.636 94.349,37.047ZM93.889,34.892C93.802,34.892 93.711,34.902 93.621,34.919C93.422,34.958 93.209,35.021 92.982,35.087C92.73,35.162 92.466,35.24 92.216,35.283C91.984,35.325 91.884,35.427 91.91,35.598L91.91,35.599C91.991,35.77 92.054,35.96 92.12,36.162C92.263,36.601 92.411,37.055 92.772,37.291C92.941,37.402 93.148,37.46 93.37,37.46C93.731,37.46 94.099,37.31 94.358,37.057C94.571,36.848 94.727,36.508 94.774,36.148C94.825,35.768 94.749,35.408 94.564,35.16C94.441,34.995 94.182,34.892 93.889,34.892Z" style="fill-rule:nonzero;"/>
        <path d="M78.867,39.518C78.985,39.417 79.122,39.323 79.233,39.245C79.283,39.21 79.326,39.18 79.361,39.154C79.518,39.039 79.661,38.915 79.8,38.797C80.069,38.566 80.324,38.348 80.609,38.243C80.75,38.192 80.898,38.165 81.063,38.165C81.361,38.165 81.667,38.251 81.964,38.335C82.135,38.383 82.31,38.432 82.481,38.464C82.699,38.504 82.924,38.525 83.15,38.525C83.33,38.525 83.515,38.512 83.695,38.485C84.304,38.397 84.925,38.165 85.651,37.758C85.805,37.672 85.954,37.573 86.1,37.478C86.248,37.378 86.404,37.277 86.563,37.189C86.627,37.154 86.696,37.128 86.764,37.106C86.817,37.087 86.872,37.069 86.925,37.043C86.974,37.021 87.021,36.995 87.064,36.971C87.169,36.915 87.267,36.86 87.386,36.837C87.482,36.819 87.595,36.808 87.702,36.808C87.809,36.808 87.962,36.819 88.092,36.864C88.483,37.001 88.836,37.237 89.128,37.449C89.199,37.5 89.272,37.555 89.34,37.61C89.426,37.675 89.514,37.744 89.604,37.807C89.684,37.862 89.772,37.904 89.856,37.944C89.932,37.979 90.01,38.015 90.081,38.062C90.485,38.322 90.836,38.698 91.123,39.179C91.396,39.638 91.564,40 91.233,40.482C91.132,40.631 91.01,40.675 90.835,40.726C90.648,40.782 90.449,40.79 90.258,40.799C90.033,40.808 89.802,40.819 89.589,40.902C89.478,40.945 89.38,41.011 89.291,41.076C89.266,41.093 89.242,41.112 89.219,41.129C89.124,41.2 89.026,41.273 88.92,41.326C88.76,41.404 88.601,41.489 88.446,41.571C88.348,41.623 88.245,41.679 88.144,41.731C87.908,41.853 87.67,41.978 87.44,42.1C87.308,42.171 87.176,42.242 87.043,42.311L87.041,42.312C87.036,42.317 87.029,42.324 87.024,42.331C86.384,42.685 86.138,43.248 85.967,43.802C85.954,43.843 85.941,43.884 85.93,43.924C85.814,44.312 85.703,44.678 85.308,44.88C85.113,44.981 84.765,45.078 84.27,45.166C83.572,45.293 82.917,45.332 82.159,45.377L82.107,45.38C81.912,45.255 81.794,45.074 81.669,44.879C81.609,44.786 81.547,44.689 81.476,44.6C81.326,44.415 81.142,44.23 80.946,44.037C80.742,43.831 80.529,43.621 80.356,43.402C79.9,42.83 79.586,42.116 79.283,41.427C79.233,41.314 79.183,41.198 79.133,41.087C79.074,40.958 79.006,40.828 78.939,40.702C78.829,40.49 78.725,40.292 78.664,40.098C78.594,39.87 78.651,39.702 78.867,39.518ZM78.929,40.707C78.995,40.833 79.064,40.963 79.12,41.092C79.171,41.203 79.222,41.319 79.272,41.432C79.575,42.123 79.889,42.837 80.346,43.411C80.521,43.63 80.732,43.84 80.937,44.045C81.133,44.24 81.317,44.422 81.465,44.608C81.537,44.696 81.599,44.792 81.658,44.886C81.784,45.081 81.903,45.266 82.102,45.393L82.104,45.394L82.16,45.39C82.918,45.345 83.573,45.306 84.272,45.179C84.768,45.089 85.119,44.993 85.314,44.893C85.715,44.687 85.824,44.319 85.941,43.928C85.954,43.888 85.967,43.847 85.979,43.806C86.148,43.253 86.395,42.693 87.032,42.342L87.034,42.339C87.039,42.333 87.044,42.328 87.05,42.322C87.182,42.252 87.314,42.182 87.446,42.112C87.677,41.991 87.915,41.864 88.15,41.743C88.252,41.69 88.353,41.635 88.452,41.583C88.606,41.5 88.767,41.415 88.925,41.336C89.034,41.284 89.131,41.21 89.227,41.14C89.25,41.123 89.274,41.104 89.298,41.086C89.386,41.022 89.483,40.956 89.595,40.914C89.804,40.831 90.035,40.822 90.258,40.811C90.451,40.803 90.65,40.793 90.838,40.739C91.017,40.687 91.141,40.641 91.244,40.489C91.579,40 91.409,39.635 91.135,39.173C90.846,38.689 90.494,38.311 90.089,38.051C90.017,38.004 89.938,37.967 89.861,37.932C89.776,37.892 89.689,37.851 89.611,37.796C89.521,37.734 89.433,37.665 89.348,37.599C89.278,37.545 89.208,37.49 89.136,37.437C88.842,37.225 88.49,36.99 88.096,36.851C87.965,36.805 87.81,36.796 87.702,36.796C87.594,36.796 87.481,36.806 87.384,36.825C87.262,36.848 87.163,36.902 87.059,36.959C87.015,36.984 86.968,37.009 86.92,37.033C86.867,37.056 86.813,37.075 86.76,37.093C86.69,37.117 86.621,37.141 86.557,37.177C86.397,37.265 86.241,37.368 86.092,37.467C85.947,37.563 85.798,37.662 85.645,37.748C84.92,38.155 84.299,38.384 83.694,38.472C83.514,38.498 83.33,38.512 83.15,38.512C82.925,38.512 82.7,38.492 82.482,38.451C82.313,38.419 82.138,38.371 81.968,38.323C81.67,38.24 81.363,38.154 81.063,38.154C80.897,38.154 80.747,38.178 80.606,38.231C80.318,38.336 80.063,38.555 79.791,38.788C79.652,38.906 79.51,39.028 79.355,39.144C79.319,39.169 79.275,39.2 79.226,39.234C79.115,39.312 78.978,39.408 78.859,39.507C78.64,39.696 78.579,39.868 78.651,40.103C78.712,40.296 78.816,40.497 78.929,40.707Z" style="fill-rule:nonzero;"/>
        <path d="M79.849,39.971C79.932,39.456 80.382,38.796 80.921,38.633C81.031,38.601 81.146,38.584 81.273,38.584C81.508,38.584 81.741,38.64 81.947,38.69C82.043,38.713 82.135,38.735 82.22,38.75C82.507,38.801 82.82,38.824 83.209,38.824C83.422,38.824 83.638,38.818 83.848,38.811C84.059,38.804 84.277,38.797 84.494,38.797C84.842,38.797 85.129,38.816 85.396,38.854C85.46,38.865 85.524,38.874 85.586,38.884C85.791,38.916 85.984,38.947 86.176,38.947C86.433,38.947 86.647,38.889 86.846,38.765C87.034,38.647 87.187,38.594 87.373,38.581C87.484,38.572 87.6,38.561 87.712,38.549C87.908,38.529 88.113,38.508 88.312,38.508L88.32,38.508C88.769,38.509 89.858,38.671 90.174,39.145C90.278,39.302 90.29,39.483 90.207,39.682C90.095,39.951 89.751,40.114 89.49,40.172C89.44,40.183 89.39,40.194 89.339,40.206C88.979,40.283 88.67,40.339 88.394,40.378C88.321,40.388 88.249,40.395 88.18,40.401C87.998,40.418 87.825,40.434 87.647,40.512C86.667,40.941 86.022,42.084 85.653,42.969C85.375,43.639 85.134,44.218 84.476,44.49C84.226,44.593 83.865,44.655 83.51,44.655L83.509,44.655C83.241,44.655 82.992,44.621 82.788,44.556C82.38,44.427 82.013,44.157 81.585,43.843L81.566,43.829C80.777,43.249 80.386,42.668 80.122,41.687L80.097,41.59C80.007,41.26 79.923,40.948 79.862,40.594C79.821,40.362 79.817,40.164 79.849,39.971ZM80.084,41.593L80.109,41.69C80.374,42.674 80.767,43.258 81.56,43.839L81.578,43.854C82.005,44.166 82.374,44.438 82.784,44.568C82.989,44.634 83.24,44.668 83.509,44.668L83.51,44.668C83.866,44.668 84.23,44.606 84.481,44.502C85.144,44.228 85.387,43.648 85.666,42.974C86.033,42.092 86.677,40.952 87.652,40.524C87.829,40.447 88,40.431 88.181,40.415C88.25,40.409 88.322,40.401 88.396,40.391C88.672,40.352 88.981,40.295 89.341,40.217C89.392,40.207 89.442,40.196 89.493,40.184C89.757,40.125 90.106,39.959 90.22,39.686C90.305,39.484 90.292,39.299 90.186,39.138C89.867,38.66 88.771,38.496 88.32,38.495L88.312,38.495C88.112,38.495 87.908,38.515 87.711,38.536C87.599,38.547 87.483,38.56 87.372,38.567C87.183,38.581 87.028,38.634 86.838,38.753C86.642,38.876 86.431,38.935 86.176,38.935C85.985,38.935 85.792,38.904 85.588,38.872C85.526,38.861 85.462,38.851 85.397,38.841C85.13,38.802 84.844,38.785 84.494,38.785C84.277,38.785 84.059,38.791 83.848,38.798C83.638,38.804 83.422,38.811 83.209,38.811C82.821,38.811 82.509,38.788 82.222,38.738C82.138,38.722 82.047,38.701 81.95,38.678C81.743,38.628 81.509,38.572 81.273,38.572C81.144,38.572 81.027,38.587 80.918,38.621C80.374,38.785 79.919,39.45 79.835,39.969C79.804,40.164 79.809,40.363 79.849,40.596C79.911,40.952 79.995,41.263 80.084,41.593Z" style="fill-rule:nonzero;"/>
        <path d="M94.83,41.354L94.828,41.357C94.798,41.412 94.769,41.458 94.742,41.499C94.65,41.647 94.596,41.737 94.567,41.981C94.546,42.174 94.554,42.373 94.562,42.565C94.57,42.791 94.58,43.026 94.541,43.257C94.406,44.076 93.755,44.919 93.025,45.219C92.955,45.248 92.858,45.285 92.792,45.297C92.739,45.306 92.689,45.312 92.643,45.312C92.214,45.312 92.115,44.89 92.021,44.483C91.998,44.392 91.977,44.298 91.951,44.211C91.854,43.876 91.722,43.655 91.525,43.492C91.327,43.33 91.061,43.224 90.661,43.15C90.499,43.121 90.35,43.106 90.205,43.106C89.927,43.106 89.662,43.158 89.317,43.279C89.302,43.284 89.288,43.289 89.273,43.294C89.082,43.36 88.919,43.416 88.804,43.595C88.583,43.941 88.403,44.499 88.488,44.895C88.571,45.283 88.853,45.361 89.149,45.441C89.207,45.456 89.265,45.473 89.323,45.491C89.414,45.521 89.486,45.551 89.55,45.587C89.999,45.839 90.494,46.068 91.111,46.306C91.635,46.508 91.889,46.954 92.134,47.381C92.373,47.797 92.619,48.228 93.11,48.433C93.186,48.464 93.27,48.481 93.361,48.481C93.47,48.481 93.59,48.457 93.719,48.413C94.069,48.29 94.383,47.915 94.617,47.601C94.984,47.109 95.44,46.497 95.981,46.103C95.995,46.093 96.009,46.083 96.023,46.074L96.023,46.057C96.007,46.069 95.99,46.081 95.973,46.093C95.432,46.487 94.975,47.1 94.606,47.593C94.374,47.906 94.062,48.28 93.715,48.401C93.587,48.445 93.468,48.467 93.361,48.467C93.272,48.467 93.189,48.452 93.115,48.421C92.629,48.217 92.383,47.79 92.146,47.374C91.899,46.944 91.643,46.498 91.115,46.294C90.499,46.056 90.004,45.828 89.556,45.576C89.492,45.54 89.419,45.508 89.326,45.479C89.27,45.46 89.21,45.445 89.153,45.429C88.859,45.348 88.582,45.272 88.501,44.892C88.417,44.499 88.596,43.946 88.815,43.602C88.927,43.428 89.089,43.371 89.277,43.307C89.292,43.301 89.307,43.296 89.322,43.291C89.665,43.169 89.929,43.119 90.205,43.119C90.349,43.119 90.497,43.133 90.657,43.163C91.428,43.304 91.751,43.57 91.939,44.215C91.964,44.301 91.986,44.395 92.007,44.485C92.104,44.898 92.204,45.324 92.643,45.324C92.69,45.324 92.741,45.32 92.794,45.31C92.861,45.297 92.96,45.26 93.03,45.231C93.392,45.082 93.744,44.799 94.024,44.433C94.301,44.073 94.488,43.656 94.555,43.259C94.592,43.027 94.583,42.791 94.574,42.565C94.566,42.373 94.559,42.174 94.581,41.982C94.607,41.741 94.663,41.652 94.754,41.505C94.778,41.465 94.808,41.418 94.84,41.364C95.097,41.155 95.402,41.047 95.746,41.047C95.837,41.047 95.929,41.055 96.023,41.071L96.023,41.057C95.929,41.042 95.837,41.035 95.746,41.035C95.398,41.035 95.091,41.142 94.83,41.354Z" style="fill-rule:nonzero;"/>
        <path d="M95.297,42.318C95.23,42.514 95.217,42.717 95.202,42.952C95.197,43.033 95.192,43.118 95.184,43.209C95.152,43.565 95.084,43.931 95.017,44.286C94.951,44.636 94.889,44.967 94.877,45.228L94.877,45.231L94.88,45.233C94.921,45.263 94.965,45.292 95.017,45.292C95.026,45.292 95.036,45.291 95.045,45.289L95.047,45.288C95.178,45.212 95.317,45.144 95.453,45.078C95.647,44.984 95.843,44.888 96.023,44.766L96.023,44.75C95.842,44.874 95.643,44.971 95.448,45.066C95.313,45.132 95.172,45.201 95.041,45.277C95.033,45.279 95.025,45.279 95.019,45.279C94.971,45.279 94.929,45.252 94.891,45.225C94.902,44.966 94.964,44.637 95.029,44.288C95.097,43.933 95.166,43.567 95.197,43.21C95.206,43.119 95.211,43.034 95.215,42.953C95.23,42.718 95.242,42.517 95.31,42.322C95.401,42.053 95.625,41.878 95.879,41.878C95.927,41.878 95.976,41.885 96.023,41.897L96.023,41.884C95.976,41.873 95.927,41.867 95.879,41.867C95.62,41.867 95.392,42.043 95.297,42.318Z" style="fill-rule:nonzero;"/>
        <path d="M90.883,44.746C90.864,44.849 90.808,44.935 90.721,44.992C90.662,45.031 90.593,45.05 90.515,45.05C90.199,45.05 89.838,44.733 89.763,44.472C89.766,44.21 90.008,44.094 90.247,44.094C90.467,44.094 90.671,44.184 90.779,44.331C90.866,44.449 90.907,44.611 90.883,44.746ZM90.247,44.081C90.001,44.081 89.752,44.202 89.75,44.472L89.75,44.474C89.826,44.74 90.194,45.063 90.515,45.063C90.595,45.063 90.666,45.042 90.729,45.003C90.818,44.944 90.876,44.856 90.896,44.748C90.921,44.61 90.879,44.444 90.789,44.323C90.68,44.174 90.471,44.081 90.247,44.081Z" style="fill-rule:nonzero;"/>
        <path d="M94.411,46.237L94.398,46.267C94.226,46.672 93.975,47.161 93.559,47.332C93.537,47.335 93.517,47.337 93.496,47.337C93.272,47.337 93.119,47.153 93.068,46.972C93.032,46.379 93.545,46.128 93.918,45.945C93.943,45.932 93.97,45.92 93.993,45.908C94.036,45.887 94.08,45.861 94.124,45.836C94.236,45.77 94.354,45.703 94.461,45.703C94.484,45.703 94.508,45.706 94.53,45.712C94.574,45.855 94.487,46.058 94.411,46.237ZM94.54,45.703L94.537,45.702C94.514,45.693 94.487,45.689 94.461,45.689C94.351,45.689 94.231,45.758 94.117,45.825C94.074,45.849 94.03,45.874 93.987,45.896C93.963,45.909 93.939,45.92 93.912,45.933C93.535,46.118 93.02,46.372 93.056,46.974C93.107,47.162 93.264,47.351 93.496,47.351C93.517,47.351 93.539,47.349 93.563,47.345C93.984,47.17 94.236,46.681 94.41,46.272L94.423,46.243C94.501,46.059 94.589,45.853 94.541,45.706L94.54,45.703Z" style="fill-rule:nonzero;"/>
        <path d="M90.181,51.758C90.093,51.895 89.945,51.963 89.745,51.963C89.669,51.963 89.586,51.955 89.493,51.935C89.435,51.923 89.387,51.911 89.347,51.897C89.172,51.837 89.092,51.737 89.052,51.524C89.009,51.308 89.003,51.045 89.033,50.803C89.072,50.486 89.258,50.165 89.536,50.165C89.653,50.165 89.775,50.221 89.897,50.334C90.077,50.502 90.203,50.757 90.24,51.035C90.265,51.216 90.284,51.6 90.181,51.758ZM89.906,50.325C89.782,50.21 89.657,50.151 89.536,50.151C89.25,50.151 89.06,50.478 89.02,50.8C88.989,51.045 88.996,51.309 89.038,51.527C89.079,51.741 89.165,51.848 89.343,51.91C89.383,51.923 89.432,51.936 89.49,51.948C89.585,51.967 89.668,51.977 89.745,51.977C89.951,51.977 90.102,51.906 90.192,51.765C90.297,51.604 90.28,51.23 90.254,51.034C90.215,50.753 90.089,50.494 89.906,50.325Z" style="fill-rule:nonzero;"/>
        <path d="M69.226,54.678C69.351,54.656 69.456,54.629 69.559,54.605C69.684,54.575 69.802,54.545 69.954,54.522C70.094,54.501 70.241,54.491 70.385,54.48C70.706,54.459 71.038,54.437 71.321,54.289C71.678,54.102 71.715,53.627 71.593,53.24C71.387,52.582 71.121,52.128 70.78,51.851C70.647,51.743 70.521,51.618 70.399,51.496C70.154,51.252 69.901,51 69.572,50.868C69.321,50.765 69.032,50.69 68.753,50.618C68.584,50.574 68.41,50.528 68.245,50.477C68.168,50.454 68.084,50.423 67.996,50.39C67.948,50.373 67.898,50.355 67.848,50.337L67.848,50.351C67.897,50.369 67.944,50.386 67.991,50.403C68.08,50.435 68.164,50.466 68.241,50.49C68.407,50.54 68.581,50.586 68.749,50.629C69.028,50.703 69.316,50.778 69.568,50.879C69.895,51.012 70.147,51.263 70.39,51.504C70.512,51.626 70.639,51.752 70.772,51.861C71.111,52.136 71.375,52.588 71.58,53.245C71.7,53.626 71.665,54.094 71.315,54.276C71.034,54.423 70.704,54.446 70.384,54.468C70.24,54.477 70.092,54.488 69.952,54.509C69.799,54.534 69.675,54.563 69.555,54.592C69.453,54.618 69.349,54.643 69.224,54.665C68.994,54.706 68.761,54.738 68.534,54.767C68.296,54.799 68.064,54.831 67.848,54.871L67.848,54.884C68.064,54.843 68.296,54.812 68.536,54.781C68.763,54.75 68.996,54.72 69.226,54.678Z" style="fill-rule:nonzero;"/>
        <path d="M68.931,53.888C69.228,53.804 69.534,53.718 69.826,53.59C70.114,53.465 70.406,53.319 70.536,53.024C70.704,52.639 70.54,52.224 70.097,51.916C70.02,51.863 69.947,51.81 69.876,51.758C69.579,51.54 69.299,51.335 68.895,51.257C68.633,51.208 68.245,51.178 67.848,51.168L67.848,51.182C68.244,51.19 68.631,51.22 68.893,51.27C69.293,51.348 69.572,51.552 69.868,51.769C69.939,51.821 70.013,51.874 70.089,51.927C70.527,52.232 70.689,52.64 70.523,53.018C70.397,53.308 70.106,53.455 69.821,53.578C69.529,53.706 69.224,53.791 68.927,53.875C68.772,53.918 68.612,53.964 68.456,54.014C68.257,54.079 68.049,54.12 67.848,54.158L67.848,54.171C68.051,54.132 68.26,54.092 68.46,54.027C68.615,53.977 68.775,53.931 68.931,53.888Z" style="fill-rule:nonzero;"/>
        <path d="M68.836,55.442C69.136,55.454 69.444,55.463 69.746,55.433C70.023,55.405 70.278,55.348 70.525,55.291C70.587,55.279 70.647,55.264 70.71,55.251C70.756,55.241 70.801,55.231 70.848,55.221C71.318,55.121 71.806,55.018 72.202,54.748C72.664,54.434 72.725,53.776 72.514,53.322C72.321,52.906 71.999,52.577 71.688,52.258C71.429,51.996 71.161,51.723 70.97,51.401C70.882,51.284 70.81,51.17 70.739,51.061C70.513,50.709 70.334,50.432 69.858,50.321C68.942,50.107 68.151,49.922 68.004,49.009C67.952,48.686 68.023,48.433 68.092,48.189C68.147,47.995 68.198,47.811 68.187,47.604L68.186,47.601L68.184,47.6C68.159,47.578 68.136,47.554 68.113,47.531C68.083,47.499 68.052,47.467 68.017,47.441L68.015,47.439L68.012,47.439C67.949,47.443 67.895,47.452 67.848,47.462L67.848,47.475C67.894,47.465 67.948,47.456 68.011,47.453C68.044,47.479 68.074,47.509 68.104,47.54C68.126,47.562 68.148,47.586 68.173,47.607C68.185,47.812 68.134,47.994 68.079,48.185C68.011,48.431 67.939,48.685 67.991,49.011C68.14,49.933 68.935,50.119 69.856,50.333C70.326,50.443 70.504,50.719 70.728,51.068C70.798,51.178 70.872,51.29 70.959,51.408C71.15,51.73 71.419,52.003 71.678,52.268C71.988,52.585 72.311,52.913 72.503,53.327C72.71,53.777 72.652,54.426 72.195,54.738C71.799,55.005 71.314,55.11 70.846,55.208C70.799,55.218 70.753,55.229 70.707,55.238C70.646,55.251 70.584,55.265 70.522,55.28C70.276,55.334 70.022,55.392 69.744,55.42C69.443,55.452 69.136,55.44 68.837,55.429C68.49,55.417 68.162,55.406 67.848,55.454L67.848,55.467C68.161,55.419 68.49,55.431 68.836,55.442Z" style="fill-rule:nonzero;"/>
        <path d="M77.783,51.965C77.838,51.828 77.931,51.739 78.031,51.727C78.114,51.718 78.201,51.712 78.29,51.712C78.708,51.712 79.125,51.815 79.568,51.924C79.838,51.991 80.116,52.059 80.397,52.103C80.48,52.117 80.573,52.122 80.7,52.122C80.763,52.122 80.829,52.121 80.894,52.12C80.959,52.118 81.027,52.117 81.095,52.117C81.442,52.117 81.789,52.156 81.971,52.444C82.194,52.799 82.122,53.202 82.052,53.589C82.034,53.687 82.016,53.788 82.003,53.883C81.941,54.337 81.61,54.65 81.093,54.744C80.951,54.77 80.801,54.782 80.647,54.782C80.345,54.782 80.038,54.731 79.762,54.636C79.28,54.469 78.981,54.28 78.868,53.801C78.786,53.455 78.661,53.189 78.449,52.913C78.367,52.804 78.235,52.65 78.081,52.538C78.047,52.512 78.004,52.493 77.964,52.472C77.9,52.442 77.836,52.411 77.797,52.365C77.728,52.282 77.723,52.118 77.783,51.965ZM77.957,52.485C78,52.505 78.04,52.524 78.072,52.548C78.226,52.66 78.356,52.812 78.439,52.921C78.649,53.196 78.774,53.459 78.856,53.805C78.97,54.289 79.272,54.48 79.758,54.648C80.035,54.744 80.343,54.795 80.647,54.795C80.802,54.795 80.952,54.782 81.095,54.756C81.618,54.663 81.954,54.346 82.016,53.885C82.029,53.79 82.047,53.689 82.064,53.592C82.136,53.202 82.209,52.797 81.982,52.437C81.797,52.144 81.446,52.103 81.095,52.103C81.027,52.103 80.958,52.105 80.894,52.106C80.829,52.108 80.763,52.11 80.7,52.11C80.573,52.11 80.481,52.103 80.399,52.091C80.119,52.046 79.84,51.978 79.572,51.912C79.128,51.803 78.709,51.699 78.29,51.699C78.201,51.699 78.113,51.705 78.03,51.713C77.924,51.726 77.828,51.818 77.771,51.96C77.718,52.093 77.702,52.271 77.786,52.373C77.828,52.422 77.895,52.454 77.957,52.485Z" style="fill-rule:nonzero;"/>
        <path d="M80.006,53.924C80.097,53.737 80.398,53.563 80.543,53.52C80.579,53.509 80.615,53.504 80.649,53.504C80.746,53.504 80.838,53.543 80.908,53.617C80.981,53.69 81.022,53.79 81.019,53.883C81.016,54.001 80.946,54.099 80.823,54.156C80.803,54.165 80.781,54.174 80.759,54.182C80.684,54.206 80.523,54.233 80.369,54.233C80.161,54.233 80.029,54.186 79.995,54.101C79.972,54.046 79.976,53.987 80.006,53.924ZM80.369,54.247C80.524,54.247 80.688,54.219 80.763,54.195C80.785,54.187 80.809,54.178 80.829,54.168C80.956,54.109 81.029,54.007 81.032,53.883C81.034,53.787 80.991,53.683 80.918,53.608C80.817,53.504 80.676,53.466 80.54,53.507C80.394,53.552 80.086,53.727 79.995,53.918C79.963,53.985 79.959,54.047 79.982,54.105C80.03,54.221 80.219,54.247 80.369,54.247Z" style="fill-rule:nonzero;"/>
        <path d="M84.412,59.189C84.409,59.159 84.41,59.128 84.411,59.095C84.412,59.061 84.413,59.027 84.409,58.992C84.384,58.779 84.297,58.518 84.206,58.243C84.112,57.961 84.016,57.671 83.97,57.392C83.951,57.275 83.939,57.149 83.926,57.027C83.888,56.628 83.849,56.218 83.57,56.035C83.444,55.951 83.26,55.913 82.991,55.913C82.841,55.913 82.679,55.924 82.52,55.935C82.458,55.939 82.396,55.944 82.334,55.948C81.784,55.981 80.64,56.123 80.24,56.426C79.695,56.839 79.63,57.548 79.639,58.189C79.703,58.995 80.254,59.446 80.86,59.901L80.882,59.901C80.272,59.444 79.717,58.995 79.65,58.188C79.643,57.552 79.708,56.846 80.249,56.437C80.645,56.136 81.786,55.994 82.335,55.96C82.397,55.957 82.459,55.952 82.522,55.948C82.68,55.936 82.842,55.925 82.991,55.925C83.258,55.925 83.439,55.963 83.564,56.045C83.836,56.225 83.875,56.632 83.914,57.028C83.925,57.15 83.938,57.277 83.957,57.394C84.003,57.674 84.1,57.965 84.193,58.248C84.285,58.522 84.372,58.781 84.396,58.993C84.399,59.027 84.398,59.062 84.397,59.094C84.397,59.128 84.396,59.16 84.399,59.19C84.426,59.4 84.397,59.65 84.326,59.901L84.34,59.901C84.41,59.649 84.439,59.398 84.412,59.189Z" style="fill-rule:nonzero;"/>
        <path d="M69.71,59.283C69.702,59.097 69.707,58.911 69.714,58.73C69.723,58.454 69.731,58.191 69.684,57.98C69.567,57.461 68.914,57.091 68.341,56.917C68.171,56.866 68.015,56.848 67.848,56.862L67.848,56.874C68.013,56.862 68.169,56.879 68.338,56.93C68.907,57.103 69.556,57.47 69.671,57.982C69.719,58.192 69.71,58.454 69.701,58.729C69.694,58.911 69.689,59.097 69.697,59.283C69.707,59.503 69.699,59.711 69.678,59.901L69.691,59.901C69.712,59.711 69.721,59.503 69.71,59.283Z" style="fill-rule:nonzero;"/>
        <path d="M83.732,59.069C83.708,58.943 83.662,58.79 83.613,58.628C83.544,58.395 83.464,58.13 83.424,57.862C83.412,57.786 83.402,57.713 83.393,57.643C83.329,57.184 83.279,56.822 82.973,56.581C82.764,56.418 82.373,56.321 81.928,56.321C81.386,56.321 80.882,56.457 80.579,56.687C80.082,57.063 80.063,57.726 80.133,58.216C80.242,58.739 80.617,59.007 81.093,59.35C81.314,59.508 81.544,59.673 81.777,59.884C81.783,59.889 81.789,59.896 81.796,59.901L81.815,59.901C81.805,59.893 81.796,59.883 81.785,59.874C81.552,59.663 81.313,59.491 81.102,59.338C80.628,58.999 80.254,58.731 80.146,58.213C80.074,57.727 80.094,57.07 80.588,56.697C80.887,56.47 81.389,56.334 81.928,56.334C82.37,56.334 82.757,56.43 82.965,56.592C83.269,56.829 83.316,57.188 83.379,57.644C83.39,57.715 83.398,57.789 83.41,57.863C83.451,58.133 83.53,58.399 83.601,58.631C83.649,58.793 83.695,58.946 83.719,59.071C83.77,59.338 83.75,59.632 83.667,59.901L83.681,59.901C83.764,59.63 83.783,59.336 83.732,59.069Z" style="fill-rule:nonzero;"/>
        <path d="M74.239,58.291C74.185,58.099 74.143,57.738 74.174,57.487C74.18,57.437 74.193,57.381 74.209,57.323C74.261,57.12 74.325,56.868 74.07,56.685L74.068,56.684L74.067,56.684C73.595,56.628 73.308,57.016 73.055,57.358C72.988,57.449 72.927,57.532 72.862,57.609C72.632,57.85 72.318,58.023 71.985,58.207C71.471,58.494 70.938,58.79 70.688,59.366C70.615,59.528 70.554,59.716 70.494,59.901L70.508,59.901C70.567,59.717 70.629,59.531 70.698,59.371C70.948,58.797 71.479,58.504 71.992,58.219C72.325,58.035 72.64,57.861 72.871,57.617C72.937,57.54 72.999,57.456 73.065,57.367C73.316,57.028 73.6,56.643 74.064,56.697C74.31,56.874 74.25,57.111 74.197,57.32C74.182,57.378 74.167,57.435 74.16,57.486C74.131,57.738 74.171,58.102 74.227,58.294C74.311,58.59 74.434,58.887 74.562,59.204C74.655,59.431 74.75,59.665 74.833,59.901L74.847,59.901C74.764,59.663 74.667,59.428 74.574,59.199C74.444,58.883 74.323,58.585 74.239,58.291Z" style="fill-rule:nonzero;"/>
        <path d="M82.595,58.681C82.515,58.787 82.437,58.872 82.354,58.941C82.277,58.952 82.199,58.958 82.12,58.958C81.501,58.958 80.755,58.587 80.589,57.902C80.562,57.363 80.708,57.141 80.951,56.957C81.14,56.815 81.426,56.73 81.717,56.73C82.084,56.73 82.394,56.859 82.567,57.083C82.812,57.396 82.82,57.979 82.595,58.681ZM81.717,56.716C81.424,56.716 81.135,56.802 80.944,56.947C80.696,57.133 80.548,57.358 80.575,57.903C80.744,58.597 81.497,58.971 82.12,58.971C82.201,58.971 82.279,58.965 82.356,58.953L82.358,58.953L82.359,58.952C82.444,58.882 82.525,58.795 82.606,58.688L82.606,58.685C82.835,57.979 82.824,57.392 82.578,57.076C82.402,56.847 82.088,56.716 81.717,56.716Z" style="fill-rule:nonzero;"/>
        <path d="M78.506,58.663C78.407,58.188 78.307,57.699 77.997,57.309C77.838,57.109 77.642,57.032 77.393,57.068C76.881,57.144 76.272,57.607 75.945,57.857C75.579,58.239 75.441,58.701 75.522,59.269C75.552,59.471 75.608,59.688 75.668,59.901L75.682,59.901C75.622,59.687 75.564,59.469 75.536,59.267C75.455,58.703 75.592,58.244 75.954,57.866C76.279,57.619 76.886,57.156 77.395,57.081C77.434,57.076 77.472,57.073 77.508,57.073C77.699,57.073 77.856,57.153 77.986,57.318C78.294,57.705 78.396,58.192 78.493,58.665C78.58,59.089 78.67,59.53 78.914,59.884C78.918,59.891 78.921,59.896 78.926,59.901L78.941,59.901C78.936,59.894 78.93,59.885 78.924,59.877C78.683,59.525 78.593,59.086 78.506,58.663Z" style="fill-rule:nonzero;"/>
        <path d="M81.766,57.678C81.721,57.756 81.647,57.801 81.567,57.801C81.544,57.801 81.52,57.797 81.495,57.79C81.479,57.771 81.461,57.754 81.445,57.742C81.423,57.715 81.411,57.683 81.415,57.646C81.421,57.594 81.453,57.539 81.497,57.504C81.522,57.495 81.547,57.491 81.57,57.491C81.647,57.491 81.72,57.538 81.767,57.614C81.768,57.633 81.768,57.656 81.766,57.678ZM81.78,57.611L81.779,57.609C81.73,57.527 81.651,57.477 81.57,57.477C81.545,57.477 81.518,57.482 81.492,57.493L81.491,57.494C81.442,57.53 81.408,57.589 81.402,57.645C81.398,57.685 81.41,57.722 81.437,57.75C81.453,57.764 81.471,57.78 81.487,57.799L81.488,57.8L81.49,57.8C81.516,57.81 81.542,57.815 81.567,57.815C81.652,57.815 81.731,57.765 81.778,57.683L81.779,57.68C81.781,57.657 81.78,57.632 81.78,57.612L81.78,57.611Z" style="fill-rule:nonzero;"/>
        <path d="M68.496,58.195C68.333,57.995 68.181,57.913 67.848,57.85L67.848,57.864C68.175,57.925 68.325,58.005 68.486,58.203C68.771,58.553 68.945,59.206 68.987,59.664C68.995,59.748 68.999,59.828 68.999,59.901L69.012,59.901C69.012,59.828 69.009,59.748 69.001,59.663C68.959,59.203 68.782,58.546 68.496,58.195Z" style="fill-rule:nonzero;"/>
        <path d="M76.899,58.367C76.881,58.367 76.861,58.367 76.842,58.369C76.663,58.383 76.506,58.466 76.386,58.608C76.215,58.811 76.139,59.122 76.172,59.482C76.185,59.621 76.207,59.762 76.238,59.901L76.251,59.901C76.221,59.761 76.197,59.621 76.185,59.481C76.152,59.123 76.227,58.817 76.396,58.616C76.513,58.477 76.667,58.395 76.843,58.38C76.862,58.379 76.881,58.378 76.899,58.378C77.43,58.378 77.626,59.01 77.799,59.566C77.835,59.683 77.87,59.797 77.907,59.901L77.922,59.901C77.884,59.797 77.849,59.681 77.812,59.562C77.638,59.001 77.44,58.367 76.899,58.367Z" style="fill-rule:nonzero;"/>
        <path d="M73.298,58.892C73.209,58.879 73.119,58.873 73.029,58.873C72.67,58.873 72.317,58.971 72.011,59.156C71.711,59.337 71.468,59.594 71.305,59.901L71.319,59.901C71.654,59.274 72.305,58.886 73.029,58.886C73.118,58.886 73.208,58.893 73.297,58.904C73.683,58.956 74.064,59.277 74.339,59.782C74.36,59.821 74.382,59.861 74.4,59.901L74.414,59.901C74.395,59.859 74.373,59.817 74.351,59.776C74.072,59.267 73.689,58.945 73.298,58.892Z" style="fill-rule:nonzero;"/>
        <path d="M67.866,59.451C67.859,59.451 67.854,59.451 67.848,59.452L67.848,59.463L67.866,59.463C67.968,59.463 68.051,59.529 68.103,59.649C68.133,59.722 68.149,59.811 68.148,59.901L68.163,59.901C68.163,59.809 68.146,59.717 68.114,59.644C68.061,59.52 67.973,59.451 67.866,59.451Z" style="fill-rule:nonzero;"/>
        <path d="M72.281,59.901L72.304,59.901C72.51,59.759 72.762,59.678 73.018,59.678C73.27,59.678 73.502,59.757 73.689,59.901L73.711,59.901C73.52,59.748 73.277,59.665 73.018,59.665C72.752,59.665 72.493,59.75 72.281,59.901Z" style="fill-rule:nonzero;"/>
        <path d="M91.209,58.632C91.055,58.349 90.894,58.055 90.767,57.751C90.696,57.585 90.633,57.404 90.565,57.21C90.278,56.385 89.953,55.451 88.945,55.451L88.905,55.451C88.539,55.459 88.194,55.587 87.97,55.694C87.915,55.718 87.858,55.745 87.802,55.772C87.633,55.849 87.458,55.929 87.301,56.016C86.843,56.269 86.317,56.392 85.811,56.512L85.804,56.513C85.761,56.524 85.715,56.535 85.666,56.543C85.326,56.616 84.903,56.706 84.769,57.101C84.666,57.406 84.761,57.795 84.852,58.171C84.885,58.309 84.916,58.439 84.938,58.562C85.011,58.989 85.017,59.391 84.951,59.757C84.942,59.804 84.933,59.852 84.921,59.901L84.935,59.901C84.946,59.853 84.955,59.806 84.964,59.759C85.028,59.392 85.024,58.988 84.95,58.56C84.928,58.436 84.897,58.306 84.864,58.168C84.772,57.793 84.68,57.406 84.781,57.105C84.913,56.716 85.332,56.628 85.669,56.557C85.718,56.546 85.764,56.537 85.807,56.526L85.814,56.525C86.322,56.406 86.849,56.282 87.308,56.028C87.463,55.942 87.638,55.861 87.807,55.783C87.864,55.757 87.92,55.731 87.975,55.706C88.198,55.599 88.543,55.472 88.905,55.463C88.919,55.462 88.933,55.462 88.945,55.462C89.943,55.462 90.267,56.393 90.554,57.215C90.62,57.408 90.684,57.59 90.754,57.757C90.883,58.062 91.042,58.355 91.197,58.64C91.329,58.881 91.454,59.109 91.562,59.344C91.668,59.579 91.78,59.763 91.898,59.901L91.916,59.901C91.794,59.764 91.682,59.578 91.572,59.339C91.466,59.104 91.341,58.875 91.209,58.632Z" style="fill-rule:nonzero;"/>
        <path d="M95.662,56.164C94.832,56.477 94.277,57.069 94.06,57.875C93.998,58.1 93.956,58.388 93.914,58.666C93.862,59.012 93.809,59.37 93.722,59.618C93.684,59.724 93.631,59.819 93.563,59.901L93.578,59.901C93.645,59.819 93.697,59.726 93.733,59.623C93.822,59.373 93.875,59.015 93.927,58.668C93.969,58.39 94.012,58.102 94.072,57.878C94.289,57.078 94.84,56.488 95.667,56.175C95.735,56.15 95.853,56.118 95.952,56.097C95.976,56.093 95.999,56.088 96.023,56.085L96.023,56.072C95.998,56.077 95.974,56.08 95.949,56.084C95.85,56.105 95.731,56.137 95.662,56.164Z" style="fill-rule:nonzero;"/>
        <path d="M94.856,50.204C94.59,50.263 94.334,50.392 94.087,50.518C93.839,50.643 93.583,50.773 93.319,50.829C92.637,50.976 92.384,50.378 92.161,49.849C92.129,49.774 92.099,49.702 92.068,49.632C91.941,49.356 91.798,49.103 91.639,48.88C91.319,48.432 90.952,48.075 90.546,47.818C90.17,47.581 89.853,47.451 89.55,47.411C89.059,47.345 88.709,47.498 88.307,47.672C88.22,47.71 88.129,47.75 88.036,47.788C87.771,47.895 87.469,48.017 87.263,48.283C87.108,48.482 86.991,48.723 86.88,48.957L86.854,49.01C86.646,49.441 86.493,49.866 86.332,50.315C86.296,50.416 86.26,50.52 86.225,50.622C86.128,50.9 86.028,51.188 85.906,51.46C85.815,51.668 85.677,51.849 85.543,52.025C85.468,52.123 85.391,52.223 85.323,52.328C85.15,52.591 84.88,52.822 84.617,53.044C84.522,53.125 84.433,53.202 84.349,53.279C84.296,53.326 84.24,53.374 84.18,53.425C83.908,53.66 83.601,53.925 83.52,54.262C83.509,54.307 83.499,54.352 83.489,54.395C83.402,54.772 83.326,55.098 82.949,55.334C82.593,55.558 82.159,55.63 81.777,55.694C81.597,55.724 81.413,55.748 81.236,55.772C80.908,55.814 80.6,55.855 80.319,55.928C79.679,56.099 79.288,56.543 79.158,57.251C79.032,57.942 79.16,58.785 79.303,59.129C79.431,59.44 79.647,59.683 79.905,59.901L79.927,59.901C79.663,59.682 79.444,59.437 79.314,59.123C79.174,58.782 79.045,57.942 79.171,57.253C79.301,56.551 79.687,56.11 80.322,55.942C80.603,55.867 80.911,55.827 81.238,55.784C81.415,55.761 81.599,55.738 81.779,55.707C82.162,55.643 82.597,55.571 82.956,55.345C83.339,55.106 83.413,54.778 83.501,54.398C83.512,54.355 83.522,54.31 83.532,54.265C83.612,53.932 83.919,53.669 84.189,53.436C84.248,53.384 84.306,53.335 84.357,53.288C84.441,53.211 84.53,53.134 84.626,53.054C84.889,52.831 85.16,52.601 85.333,52.334C85.401,52.231 85.479,52.13 85.553,52.033C85.687,51.857 85.826,51.674 85.919,51.466C86.041,51.194 86.141,50.905 86.237,50.625C86.272,50.525 86.309,50.42 86.345,50.319C86.506,49.871 86.658,49.447 86.866,49.015L86.891,48.962C87.003,48.729 87.119,48.489 87.274,48.29C87.478,48.028 87.777,47.907 88.041,47.8C88.135,47.761 88.225,47.722 88.312,47.685C88.713,47.509 89.06,47.358 89.549,47.422C89.85,47.463 90.164,47.591 90.539,47.829C90.943,48.084 91.311,48.441 91.629,48.889C91.786,49.11 91.93,49.363 92.056,49.638C92.087,49.706 92.117,49.779 92.149,49.855C92.258,50.11 92.379,50.399 92.558,50.599C92.764,50.829 93.014,50.909 93.323,50.842C93.587,50.786 93.844,50.655 94.093,50.529C94.34,50.405 94.596,50.275 94.858,50.217C95.292,50.121 95.689,50.233 96.023,50.351L96.023,50.337C95.689,50.219 95.291,50.109 94.856,50.204Z" style="fill-rule:nonzero;"/>
        <path d="M94.168,55.139C93.858,55.44 93.565,55.725 93.182,55.836C92.648,55.994 92.245,55.601 91.855,55.22C91.831,55.197 91.807,55.173 91.783,55.15C91.585,54.958 91.348,54.813 91.118,54.673C90.954,54.573 90.783,54.468 90.63,54.348C90.515,54.257 90.393,54.173 90.274,54.092C90.194,54.036 90.112,53.979 90.034,53.922C89.903,53.827 89.813,53.676 89.724,53.53C89.676,53.452 89.627,53.37 89.571,53.3C89.421,53.107 89.209,52.96 89.003,52.818C88.626,52.558 88.27,52.312 88.244,51.802C88.23,51.498 88.298,51.122 88.432,50.767C88.56,50.432 88.801,50.069 89.095,49.77C89.295,49.567 89.498,49.472 89.698,49.489C90.054,49.519 90.358,49.895 90.584,50.22C90.717,50.412 90.77,50.595 90.824,50.79C90.856,50.904 90.89,51.019 90.94,51.143C90.991,51.266 91.053,51.387 91.11,51.504C91.204,51.689 91.299,51.879 91.358,52.083C91.458,52.424 91.478,52.918 91.323,53.204C91.173,53.479 91.244,53.947 91.402,54.192C91.546,54.415 91.905,54.556 92.194,54.67C92.26,54.696 92.32,54.721 92.375,54.744C92.4,54.755 92.427,54.766 92.451,54.778C92.545,54.819 92.624,54.856 92.715,54.874C93.163,54.966 93.473,54.751 93.659,54.218C93.856,53.658 93.72,53.148 93.276,52.782C93.142,52.671 92.987,52.586 92.838,52.504C92.771,52.467 92.7,52.428 92.633,52.388C92.615,52.377 92.598,52.368 92.58,52.356C92.385,52.24 92.143,52.095 92.009,51.927C91.809,51.675 91.645,51.403 91.521,51.116C91.458,50.969 91.408,50.82 91.356,50.661C91.318,50.546 91.279,50.429 91.234,50.31C91.132,50.039 90.976,49.797 90.864,49.643C90.653,49.356 90.273,48.97 89.896,48.83C89.298,48.608 88.493,49.198 88.098,49.647C87.876,49.899 87.732,50.213 87.62,50.487C87.59,50.561 87.561,50.637 87.53,50.71C87.367,51.121 87.212,51.508 86.954,51.866C86.871,51.981 86.803,52.104 86.736,52.223C86.689,52.308 86.64,52.398 86.585,52.483C86.446,52.7 86.235,52.829 86.027,52.936C85.932,52.986 85.832,53.032 85.736,53.078C85.459,53.206 85.173,53.341 84.939,53.561C84.791,53.702 84.732,53.85 84.764,54.003C84.815,54.257 85.097,54.448 85.344,54.54C85.856,54.731 86.45,54.662 86.973,54.599L87.04,54.592C87.082,54.587 87.123,54.583 87.164,54.579C87.395,54.555 87.613,54.533 87.832,54.408C87.867,54.388 87.901,54.369 87.936,54.349C88.267,54.161 88.553,53.997 88.933,53.913C89.171,53.859 89.525,53.864 89.741,53.999C89.849,54.066 89.895,54.167 89.943,54.275C89.973,54.341 90.004,54.409 90.049,54.47C90.231,54.707 90.476,54.894 90.713,55.076C90.945,55.252 91.187,55.436 91.368,55.667C91.477,55.805 91.567,55.976 91.656,56.14C91.744,56.305 91.836,56.475 91.94,56.606C92.156,56.873 92.449,56.964 92.77,56.865C93.047,56.778 93.355,56.542 93.652,56.315C93.698,56.28 93.742,56.246 93.786,56.212C93.941,56.095 94.093,55.972 94.239,55.853C94.642,55.526 95.022,55.216 95.451,55.042C95.621,54.974 95.815,54.924 96.023,54.884L96.023,54.871C95.813,54.912 95.617,54.96 95.446,55.031C95.016,55.205 94.634,55.516 94.231,55.843C94.084,55.962 93.934,56.084 93.778,56.202C93.734,56.235 93.689,56.269 93.646,56.304C93.349,56.531 93.042,56.766 92.766,56.852C92.451,56.95 92.162,56.86 91.951,56.597C91.848,56.468 91.76,56.306 91.668,56.135C91.579,55.969 91.486,55.797 91.378,55.66C91.194,55.427 90.954,55.243 90.721,55.065C90.484,54.884 90.24,54.698 90.06,54.461C90.016,54.403 89.985,54.335 89.955,54.27C89.905,54.162 89.858,54.058 89.749,53.988C89.529,53.85 89.17,53.845 88.93,53.899C88.548,53.985 88.261,54.148 87.929,54.338C87.895,54.357 87.859,54.376 87.825,54.398C87.609,54.52 87.393,54.541 87.162,54.565C87.122,54.57 87.08,54.575 87.038,54.579L86.972,54.587C86.449,54.648 85.858,54.717 85.348,54.527C85.042,54.414 84.817,54.206 84.776,54C84.746,53.852 84.804,53.707 84.949,53.571C85.18,53.353 85.466,53.218 85.741,53.088C85.838,53.044 85.938,52.998 86.034,52.948C86.242,52.84 86.456,52.709 86.597,52.489C86.65,52.404 86.7,52.316 86.748,52.23C86.814,52.111 86.883,51.988 86.965,51.874C87.225,51.515 87.379,51.126 87.543,50.715C87.572,50.641 87.602,50.567 87.633,50.491C87.745,50.219 87.888,49.907 88.107,49.656C88.5,49.209 89.299,48.623 89.891,48.842C90.266,48.981 90.644,49.366 90.853,49.652C90.966,49.805 91.121,50.044 91.223,50.315C91.268,50.433 91.307,50.551 91.344,50.665C91.396,50.824 91.445,50.974 91.509,51.121C91.633,51.409 91.798,51.682 91.998,51.935C92.134,52.105 92.377,52.25 92.572,52.368C92.591,52.377 92.608,52.388 92.627,52.4C92.693,52.44 92.765,52.478 92.832,52.516C92.981,52.597 93.134,52.681 93.268,52.791C93.706,53.154 93.841,53.659 93.647,54.214C93.463,54.741 93.158,54.952 92.717,54.862C92.629,54.843 92.549,54.808 92.456,54.766C92.432,54.755 92.405,54.744 92.38,54.731C92.326,54.708 92.264,54.685 92.199,54.659C91.911,54.544 91.554,54.404 91.413,54.185C91.258,53.943 91.187,53.483 91.334,53.21C91.489,52.923 91.47,52.423 91.37,52.08C91.312,51.875 91.215,51.684 91.123,51.498C91.064,51.381 91.004,51.26 90.953,51.137C90.902,51.015 90.869,50.899 90.837,50.787C90.782,50.59 90.73,50.406 90.595,50.212C90.367,49.886 90.06,49.506 89.699,49.476C89.495,49.458 89.289,49.554 89.086,49.76C88.79,50.061 88.548,50.426 88.42,50.762C88.285,51.119 88.217,51.498 88.231,51.803C88.257,52.319 88.632,52.578 88.995,52.829C89.2,52.97 89.412,53.117 89.562,53.308C89.616,53.376 89.663,53.455 89.713,53.538C89.802,53.683 89.894,53.834 90.025,53.932C90.105,53.99 90.188,54.047 90.267,54.102C90.384,54.184 90.506,54.269 90.621,54.358C90.775,54.479 90.946,54.583 91.111,54.683C91.341,54.824 91.577,54.968 91.773,55.16C91.799,55.183 91.821,55.206 91.846,55.23C92.238,55.612 92.645,56.008 93.186,55.849C93.571,55.737 93.866,55.452 94.178,55.149C94.473,54.862 94.779,54.564 95.191,54.391C95.455,54.281 95.742,54.217 96.023,54.16L96.023,54.146C95.74,54.204 95.452,54.268 95.186,54.38C94.772,54.553 94.466,54.851 94.168,55.139Z" style="fill-rule:nonzero;"/>
        <path d="M94.648,51.246C94.437,51.29 94.22,51.398 93.99,51.51C93.609,51.698 93.217,51.892 92.855,51.779C92.203,51.576 91.953,50.883 91.732,50.274C91.687,50.149 91.645,50.032 91.599,49.918C91.498,49.667 91.371,49.434 91.223,49.228C90.991,48.906 90.707,48.706 90.406,48.497C90.36,48.465 90.315,48.433 90.269,48.401C90.004,48.212 89.681,48.027 89.308,48.081C89.19,48.097 89.068,48.16 88.951,48.22C88.877,48.259 88.807,48.294 88.738,48.32C88.688,48.338 88.636,48.358 88.583,48.377C88.184,48.521 87.771,48.671 87.486,48.995C87.405,49.087 87.335,49.208 87.268,49.324C87.232,49.385 87.199,49.442 87.165,49.497C87.023,49.712 86.902,49.951 86.802,50.205C86.694,50.481 86.631,50.777 86.57,51.064C86.504,51.373 86.436,51.695 86.312,51.986C86.184,52.285 85.846,52.499 85.547,52.688C85.466,52.74 85.389,52.789 85.32,52.837C85.117,52.979 84.94,53.15 84.772,53.316C84.66,53.424 84.545,53.538 84.423,53.64C84.141,53.878 84.015,54.286 84.092,54.703C84.229,55.433 84.513,55.553 85.128,55.656C85.597,55.733 86.143,55.714 86.795,55.601C87.171,55.535 87.528,55.291 87.873,55.058C87.999,54.972 88.117,54.892 88.233,54.823C88.718,54.53 89.293,54.591 89.771,54.986C89.832,55.036 89.894,55.085 89.955,55.133C90.318,55.424 90.662,55.699 90.845,56.135C90.926,56.326 90.979,56.529 91.03,56.726C91.08,56.918 91.132,57.118 91.21,57.306C91.327,57.589 91.557,57.903 91.81,58.124C92.027,58.317 92.357,58.524 92.691,58.426C93.002,58.335 93.185,57.983 93.379,57.61C93.502,57.373 93.631,57.128 93.8,56.925C94.02,56.661 94.314,56.421 94.516,56.264L94.536,56.248C94.97,55.912 95.378,55.593 95.919,55.486C95.953,55.478 95.988,55.472 96.023,55.467L96.023,55.454C95.987,55.459 95.952,55.465 95.915,55.472C95.371,55.581 94.962,55.9 94.529,56.237L94.507,56.253C94.305,56.411 94.011,56.652 93.789,56.916C93.619,57.121 93.492,57.367 93.367,57.604C93.175,57.975 92.992,58.325 92.688,58.414C92.36,58.51 92.034,58.305 91.818,58.116C91.57,57.898 91.336,57.579 91.223,57.301C91.145,57.114 91.093,56.915 91.043,56.723C90.991,56.526 90.939,56.322 90.857,56.13C90.673,55.691 90.312,55.403 89.962,55.123C89.902,55.076 89.84,55.026 89.779,54.976C89.296,54.578 88.716,54.517 88.227,54.811C88.109,54.881 87.991,54.961 87.867,55.046C87.522,55.281 87.165,55.522 86.792,55.587C86.142,55.703 85.598,55.72 85.13,55.642C84.522,55.541 84.24,55.421 84.105,54.7C84.027,54.288 84.153,53.885 84.431,53.651C84.553,53.546 84.669,53.434 84.781,53.325C84.95,53.16 85.125,52.988 85.327,52.847C85.396,52.799 85.474,52.75 85.554,52.699C85.854,52.509 86.193,52.294 86.323,51.992C86.448,51.699 86.517,51.376 86.583,51.067C86.645,50.78 86.706,50.485 86.814,50.21C86.914,49.957 87.035,49.719 87.176,49.503C87.211,49.45 87.244,49.391 87.279,49.331C87.347,49.215 87.416,49.096 87.497,49.003C87.779,48.683 88.19,48.534 88.588,48.389C88.64,48.37 88.691,48.351 88.744,48.332C88.814,48.306 88.886,48.268 88.956,48.232C89.073,48.171 89.194,48.11 89.31,48.093C89.679,48.04 89.997,48.225 90.262,48.412C90.309,48.445 90.353,48.475 90.398,48.506C90.699,48.717 90.982,48.915 91.212,49.235C91.36,49.441 91.485,49.673 91.587,49.924C91.632,50.036 91.674,50.154 91.72,50.279C91.941,50.891 92.192,51.586 92.852,51.791C93.218,51.906 93.614,51.71 93.996,51.522C94.226,51.409 94.441,51.303 94.65,51.258C94.947,51.195 95.495,51.169 96.023,51.182L96.023,51.168C95.494,51.158 94.945,51.182 94.648,51.246Z" style="fill-rule:nonzero;"/>
        <path d="M94.382,40.803C94.025,41.05 93.812,41.401 93.747,41.843C93.722,42.016 93.741,42.206 93.761,42.387C93.782,42.579 93.803,42.776 93.772,42.962C93.739,43.176 93.624,43.368 93.479,43.453C93.376,43.513 93.263,43.52 93.144,43.475C92.759,43.028 92.444,42.731 91.971,42.538C91.835,42.483 91.698,42.435 91.527,42.382C91.444,42.356 91.36,42.329 91.279,42.302C90.765,42.133 90.231,41.959 89.365,42.031C88.949,42.065 88.636,42.142 88.362,42.418C88.182,42.601 88.045,42.821 87.915,43.034C87.819,43.186 87.722,43.345 87.609,43.487C87.552,43.559 87.484,43.63 87.419,43.7C87.322,43.802 87.221,43.908 87.147,44.025C86.993,44.268 86.986,44.673 87.044,44.946C87.12,45.302 87.348,45.608 87.576,45.891C87.632,45.961 87.686,46.039 87.744,46.12C87.897,46.338 88.055,46.564 88.274,46.681C88.516,46.808 88.797,46.809 89.064,46.79C89.157,46.785 89.251,46.758 89.343,46.735C89.477,46.699 89.615,46.661 89.749,46.685C90.225,46.77 90.764,47.101 91.108,47.383C91.296,47.536 91.466,47.707 91.613,47.895C91.729,48.041 91.839,48.189 91.957,48.347C92.158,48.617 92.366,48.895 92.603,49.17C92.822,49.427 93.108,49.669 93.558,49.514C93.813,49.425 94.032,49.273 94.236,49.123C94.538,48.901 94.812,48.589 95.076,48.287C95.317,48.009 95.547,47.748 95.772,47.587C95.834,47.543 95.907,47.502 96.023,47.475L96.023,47.462C95.904,47.489 95.827,47.533 95.765,47.577C95.537,47.738 95.309,47.999 95.065,48.279C94.803,48.58 94.53,48.892 94.229,49.113C94.019,49.268 93.807,49.415 93.554,49.501C93.111,49.655 92.829,49.415 92.612,49.163C92.377,48.887 92.168,48.608 91.968,48.339C91.85,48.181 91.738,48.033 91.623,47.887C91.476,47.7 91.306,47.526 91.116,47.373C90.77,47.09 90.229,46.757 89.751,46.672C89.614,46.648 89.475,46.685 89.339,46.722C89.248,46.746 89.155,46.771 89.064,46.777C88.798,46.795 88.519,46.795 88.28,46.669C88.064,46.554 87.906,46.33 87.754,46.113C87.697,46.031 87.643,45.954 87.586,45.882C87.359,45.602 87.131,45.297 87.057,44.943C87,44.672 87.007,44.272 87.158,44.032C87.231,43.915 87.331,43.81 87.429,43.707C87.494,43.639 87.563,43.568 87.619,43.496C87.733,43.352 87.831,43.194 87.925,43.04C88.057,42.828 88.191,42.609 88.372,42.428C88.643,42.155 88.953,42.078 89.366,42.043C90.231,41.973 90.763,42.146 91.275,42.315C91.356,42.341 91.44,42.369 91.523,42.395C91.693,42.448 91.831,42.496 91.965,42.55C92.438,42.742 92.752,43.039 93.134,43.485L93.135,43.486L93.137,43.487C93.262,43.534 93.379,43.525 93.485,43.464C93.634,43.377 93.752,43.181 93.786,42.964C93.815,42.777 93.794,42.579 93.773,42.386C93.755,42.205 93.735,42.016 93.76,41.845C93.824,41.406 94.036,41.059 94.389,40.814C94.792,40.534 95.356,40.403 96.023,40.428L96.023,40.415C95.353,40.39 94.787,40.521 94.382,40.803Z" style="fill-rule:nonzero;"/>
        <path d="M75.527,33.62C75.55,33.803 75.578,34.144 75.515,34.373C75.409,34.749 75.105,35.074 74.811,35.388C74.395,35.831 73.965,36.289 74.097,36.901C74.168,37.231 74.346,37.436 74.644,37.529C74.901,37.61 75.219,37.599 75.576,37.58C76.229,37.543 76.671,37.651 76.928,37.748C77.188,37.848 77.426,38.012 77.658,38.172C77.969,38.386 78.263,38.589 78.595,38.634C78.728,38.652 78.837,38.648 78.962,38.62C79.272,38.551 79.507,38.395 79.755,38.229C80.177,37.949 80.612,37.658 81.458,37.827C81.644,37.863 81.828,37.918 82.023,37.976C82.647,38.161 83.291,38.35 84.012,37.968C84.663,37.641 85.073,37.04 85.469,36.459C85.653,36.189 85.845,35.908 86.056,35.662C86.326,35.347 86.694,34.916 87.147,35.066C87.328,35.124 87.516,35.154 87.697,35.182C87.985,35.228 88.282,35.275 88.55,35.443C88.741,35.563 88.89,35.734 89.034,35.9C89.102,35.977 89.172,36.057 89.245,36.131C89.407,36.294 89.538,36.487 89.665,36.672C89.773,36.831 89.885,36.993 90.016,37.138C90.191,37.293 90.346,37.429 90.525,37.591C90.742,37.79 90.94,38.025 91.132,38.251C91.499,38.688 91.845,39.099 92.297,39.232C92.616,39.327 92.946,39.314 93.367,39.193C93.592,39.127 93.889,39.001 94.098,38.906C94.522,38.713 94.999,38.45 95.373,38.203C95.665,38.009 95.888,37.738 96.023,37.413L96.023,37.378C95.891,37.714 95.664,37.995 95.367,38.191C94.992,38.438 94.516,38.702 94.092,38.894C93.884,38.989 93.588,39.116 93.364,39.18C92.944,39.3 92.617,39.313 92.301,39.22C91.853,39.088 91.508,38.678 91.142,38.244C90.95,38.017 90.752,37.781 90.533,37.582C90.354,37.419 90.2,37.283 90.024,37.128C89.895,36.985 89.784,36.822 89.676,36.665C89.549,36.479 89.416,36.287 89.255,36.123C89.181,36.048 89.111,35.968 89.044,35.89C88.899,35.724 88.75,35.552 88.557,35.432C88.287,35.262 87.988,35.215 87.699,35.17C87.518,35.141 87.33,35.112 87.151,35.053C86.69,34.902 86.317,35.335 86.046,35.653C85.834,35.901 85.644,36.18 85.458,36.452C85.063,37.033 84.654,37.632 84.007,37.956C83.29,38.336 82.647,38.147 82.026,37.963C81.831,37.906 81.647,37.851 81.46,37.814C80.61,37.645 80.172,37.936 79.748,38.218C79.501,38.383 79.268,38.539 78.958,38.607C78.836,38.634 78.728,38.638 78.597,38.621C78.269,38.578 77.975,38.375 77.665,38.161C77.434,38.001 77.192,37.835 76.932,37.736C76.675,37.638 76.231,37.53 75.575,37.566C74.963,37.6 74.268,37.639 74.108,36.898C73.98,36.292 74.406,35.836 74.819,35.396C75.115,35.081 75.421,34.755 75.526,34.375C75.588,34.158 75.568,33.843 75.541,33.618C75.496,33.255 75.39,32.883 75.276,32.491C75.265,32.449 75.253,32.407 75.24,32.364L75.227,32.364C75.239,32.408 75.252,32.451 75.265,32.495C75.377,32.887 75.484,33.257 75.527,33.62Z" style="fill-rule:nonzero;"/>
        <path d="M94.567,58.456C94.519,58.716 94.496,58.986 94.474,59.247C94.454,59.474 94.436,59.695 94.4,59.901L94.413,59.901C94.448,59.694 94.468,59.472 94.486,59.248C94.51,58.987 94.532,58.717 94.581,58.457C94.75,57.551 95.203,57.009 95.893,56.891C95.938,56.883 95.981,56.878 96.023,56.874L96.023,56.862C95.98,56.865 95.937,56.87 95.89,56.878C95.195,56.998 94.738,57.542 94.567,58.456Z" style="fill-rule:nonzero;"/>
        <path d="M90.754,59.176C90.678,58.908 90.555,58.63 90.436,58.363L90.415,58.317C90.338,58.14 90.274,57.952 90.208,57.751C90.072,57.342 89.932,56.919 89.653,56.615C89.406,56.345 89.003,56.19 88.546,56.19C88.29,56.19 88.044,56.24 87.835,56.333C87.588,56.444 87.388,56.576 87.223,56.736C87.085,56.87 86.884,56.939 86.689,57.008C86.56,57.052 86.426,57.1 86.309,57.165C85.955,57.367 85.732,57.647 85.666,57.98C85.604,58.29 85.61,58.689 85.617,59.075C85.62,59.309 85.625,59.552 85.614,59.777C85.612,59.816 85.609,59.859 85.606,59.901L85.619,59.901C85.622,59.859 85.625,59.817 85.627,59.777C85.638,59.553 85.634,59.309 85.63,59.075C85.623,58.689 85.617,58.29 85.679,57.982C85.745,57.654 85.965,57.375 86.315,57.176C86.431,57.112 86.564,57.065 86.694,57.02C86.889,56.952 87.091,56.881 87.231,56.746C87.396,56.586 87.595,56.456 87.841,56.345C88.049,56.252 88.292,56.204 88.546,56.204C88.999,56.204 89.398,56.357 89.644,56.624C89.92,56.927 90.061,57.348 90.195,57.756C90.263,57.956 90.325,58.146 90.403,58.322L90.425,58.369C90.543,58.636 90.665,58.912 90.741,59.18C90.784,59.331 90.821,59.498 90.857,59.661C90.876,59.744 90.894,59.824 90.912,59.901L90.926,59.901C90.907,59.824 90.889,59.742 90.87,59.658C90.835,59.496 90.798,59.328 90.754,59.176Z" style="fill-rule:nonzero;"/>
        <path d="M90.155,59.412C90.124,59.2 90.088,58.959 90.002,58.749C89.968,58.664 89.915,58.592 89.863,58.523C89.823,58.47 89.784,58.416 89.752,58.356C89.705,58.27 89.668,58.173 89.629,58.071C89.516,57.781 89.399,57.481 89.079,57.396C89.003,57.375 88.903,57.367 88.774,57.367C88.639,57.367 88.495,57.377 88.367,57.388C88.316,57.391 88.27,57.395 88.226,57.399C87.811,57.424 87.367,57.582 87.037,57.824C86.64,58.113 86.525,58.6 86.474,58.944C86.435,59.19 86.399,59.554 86.519,59.863C86.524,59.875 86.529,59.888 86.534,59.901L86.549,59.901C86.543,59.886 86.536,59.873 86.53,59.858C86.412,59.553 86.448,59.19 86.485,58.945C86.537,58.605 86.651,58.12 87.045,57.833C87.373,57.594 87.815,57.437 88.227,57.411C88.271,57.409 88.317,57.405 88.368,57.401C88.496,57.39 88.64,57.378 88.774,57.378C88.901,57.378 89,57.389 89.076,57.41C89.391,57.493 89.505,57.79 89.616,58.075C89.656,58.179 89.694,58.275 89.74,58.362C89.772,58.422 89.814,58.477 89.853,58.53C89.903,58.599 89.956,58.67 89.99,58.753C90.075,58.962 90.111,59.202 90.143,59.414C90.165,59.564 90.174,59.732 90.173,59.901L90.186,59.901C90.188,59.731 90.178,59.563 90.155,59.412Z" style="fill-rule:nonzero;"/>
        <path d="M96.012,57.848L96.011,57.848C95.393,57.904 95.047,58.577 94.955,59.901L94.969,59.901C95.06,58.585 95.4,57.917 96.011,57.861C96.015,57.862 96.02,57.863 96.023,57.863L96.023,57.85C96.021,57.849 96.016,57.848 96.012,57.848Z" style="fill-rule:nonzero;"/>
        <path d="M95.856,59.511C95.789,59.623 95.723,59.753 95.71,59.901L95.723,59.901C95.736,59.758 95.802,59.629 95.867,59.52C95.922,59.487 95.975,59.468 96.023,59.463L96.023,59.452C95.972,59.456 95.917,59.474 95.858,59.509L95.856,59.511Z" style="fill-rule:nonzero;"/>
        <path d="M75.058,58.139C75.159,57.808 75.332,57.608 75.604,57.308C75.646,57.26 75.692,57.213 75.742,57.162C75.936,56.961 76.155,56.734 76.204,56.498C76.302,56.025 76.01,55.748 75.71,55.54C75.562,55.438 75.396,55.357 75.234,55.279C75.026,55.177 74.811,55.072 74.633,54.918C74.443,54.754 74.28,54.521 74.147,54.223C74.086,54.091 74.06,53.948 74.032,53.81C74.007,53.675 73.981,53.537 73.924,53.408C73.662,52.822 73.32,52.16 72.762,51.696C72.519,51.495 72.212,51.176 72.131,50.797C72.078,50.548 72.151,50.331 72.211,50.156L72.221,50.124C72.354,49.73 72.75,48.789 73.58,48.551C73.729,48.508 73.911,48.477 74.104,48.443C74.346,48.402 74.597,48.358 74.778,48.29C75.064,48.185 75.267,48.04 75.482,47.874L75.514,47.851C75.72,47.693 75.977,47.497 76.312,47.522C76.602,47.546 76.934,47.697 77.22,47.939C77.51,48.183 77.703,48.479 77.753,48.751C77.784,48.927 77.799,49.069 77.813,49.206C77.825,49.324 77.835,49.435 77.857,49.558C77.965,50.173 78.26,50.665 78.735,51.015C79.122,51.3 79.637,51.5 80.268,51.609C81.086,51.751 81.781,51.484 82.041,51.363C82.455,51.169 82.898,50.705 83.281,50.283C83.662,49.864 83.863,49.616 83.908,48.951C83.923,48.737 83.905,48.531 83.889,48.33C83.883,48.251 83.875,48.171 83.87,48.091C83.867,48.033 83.862,47.974 83.856,47.912C83.838,47.709 83.82,47.5 83.856,47.286C83.934,46.842 84.189,46.646 84.642,46.69C85.231,46.745 85.746,47.135 85.953,47.685C86.118,48.123 85.985,48.58 85.88,48.949L85.862,49.009C85.688,49.62 85.449,50.095 85.136,50.464C84.957,50.672 84.761,50.868 84.569,51.058C84.498,51.127 84.426,51.2 84.356,51.272C84.256,51.373 84.146,51.465 84.038,51.554C83.904,51.665 83.766,51.783 83.647,51.916C83.481,52.105 83.356,52.319 83.256,52.502C82.929,53.104 82.7,53.635 82.559,54.122C82.431,54.561 82.077,54.911 81.613,55.056C81.015,55.243 80.157,55.221 79.065,54.992C78.53,54.878 78.211,54.572 78.119,54.079C78.015,53.516 77.634,53.236 77.232,52.94C77.129,52.864 77.022,52.785 76.919,52.702C76.492,52.352 76.705,52.021 76.93,51.67C77.03,51.513 77.134,51.352 77.178,51.187C77.249,50.929 77.157,50.657 77.069,50.393C77.023,50.255 76.981,50.126 76.959,49.998C76.856,49.39 76.752,48.91 76.442,48.712C76.276,48.607 76.064,48.592 75.79,48.669C75.746,48.68 75.697,48.695 75.646,48.71C75.54,48.742 75.42,48.777 75.321,48.798C75.15,48.837 74.973,48.86 74.784,48.882C74.584,48.908 74.378,48.933 74.15,48.981C73.806,49.052 73.502,49.218 73.273,49.46C73.049,49.698 72.906,49.998 72.859,50.33C72.84,50.47 72.834,50.591 72.873,50.723C72.986,51.108 73.336,51.379 73.644,51.619C73.715,51.673 73.782,51.725 73.847,51.779L73.857,51.788C74.155,52.034 74.526,52.34 74.513,52.761C74.498,53.195 74.554,53.509 74.697,53.814C74.924,54.292 75.243,54.583 75.8,54.816C75.842,54.832 75.883,54.85 75.925,54.867C76.116,54.946 76.313,55.027 76.496,55.13C76.646,55.214 76.746,55.32 76.852,55.431C76.91,55.493 76.971,55.556 77.04,55.617C77.123,55.689 77.202,55.785 77.285,55.887C77.495,56.147 77.733,56.441 78.102,56.371C78.29,56.334 78.476,56.205 78.673,56.068C78.845,55.948 79.022,55.824 79.223,55.745C79.562,55.612 80.039,55.581 80.545,55.546C80.852,55.526 81.17,55.504 81.46,55.459C82.12,55.355 82.566,55.123 82.824,54.751C82.901,54.642 82.952,54.518 83,54.398C83.037,54.304 83.075,54.208 83.126,54.121C83.163,54.053 83.222,54.001 83.278,53.95C83.31,53.922 83.343,53.892 83.371,53.86C83.424,53.801 83.475,53.74 83.524,53.679C83.579,53.613 83.636,53.543 83.696,53.478C83.79,53.375 83.897,53.282 83.999,53.189C84.094,53.103 84.192,53.014 84.282,52.918C84.356,52.84 84.416,52.755 84.474,52.673C84.539,52.58 84.605,52.485 84.694,52.398C84.845,52.248 85.002,52.085 85.128,51.904C85.235,51.748 85.283,51.596 85.337,51.436C85.352,51.386 85.368,51.335 85.388,51.283C85.428,51.166 85.501,51.056 85.571,50.949C85.613,50.885 85.655,50.821 85.69,50.756C85.824,50.511 85.939,50.266 86.031,50.028C86.057,49.96 86.08,49.892 86.105,49.826C86.114,49.797 86.125,49.77 86.135,49.742C86.181,49.615 86.23,49.486 86.277,49.361C86.414,48.998 86.557,48.624 86.63,48.283C86.677,48.065 86.718,47.832 86.668,47.603C86.498,46.815 85.734,45.994 85.034,45.843C84.711,45.775 84.303,45.779 83.886,45.857C83.193,45.987 82.938,46.321 82.973,47.05C82.981,47.22 82.997,47.392 83.011,47.558C83.044,47.917 83.075,48.257 83.037,48.585C83.016,48.774 82.952,48.943 82.907,49.052C82.806,49.297 82.573,49.716 82.283,50.17C81.998,50.617 81.614,50.942 81.23,51.064C80.5,51.295 79.522,51.066 78.954,50.529C78.669,50.26 78.365,49.8 78.534,49.142C78.545,49.102 78.562,49.062 78.58,49.019C78.604,48.968 78.626,48.915 78.639,48.856C78.727,48.704 78.837,48.567 78.944,48.434C79.187,48.134 79.415,47.852 79.327,47.448C79.312,47.373 79.278,47.294 79.243,47.209C79.172,47.036 79.099,46.857 79.185,46.75C79.335,46.563 79.54,46.368 79.758,46.162C80.134,45.804 80.523,45.433 80.634,45.085C80.746,44.737 80.517,44.39 80.419,44.244C80.314,44.084 80.192,43.92 80.065,43.745C79.967,43.61 79.864,43.47 79.768,43.331C79.688,43.215 79.609,43.104 79.532,42.994C79.355,42.738 79.187,42.498 79.014,42.24C78.945,42.137 78.877,42.027 78.81,41.921C78.697,41.744 78.582,41.561 78.466,41.406C78.212,41.066 77.926,40.926 77.612,40.99C77.302,41.053 76.965,41.293 76.673,41.512C76.633,41.541 76.594,41.571 76.555,41.601C76.01,42.01 75.391,42.473 75.228,42.988C75.09,43.426 75.345,43.63 75.614,43.846C75.644,43.87 75.673,43.893 75.701,43.917C75.881,44.065 76.019,44.218 76.129,44.347C76.279,44.524 76.413,44.736 76.542,44.941C76.633,45.085 76.719,45.224 76.805,45.336C77.101,45.724 77.484,45.895 77.855,46.062C78.219,46.224 78.594,46.39 78.878,46.762C78.878,46.776 78.879,46.789 78.879,46.802C78.88,46.841 78.882,46.88 78.871,46.916C78.533,47.282 78.114,47.373 77.59,47.198C77.43,47.144 77.272,47.059 77.104,46.967C76.729,46.764 76.341,46.555 75.895,46.691C75.573,46.788 75.351,47.014 75.135,47.233C74.922,47.45 74.702,47.673 74.384,47.785C74.197,47.848 74.005,47.867 73.734,47.888C73.053,47.94 72.724,48.018 72.443,48.373C72.074,48.843 71.619,49.672 71.48,50.015C71.425,50.152 71.391,50.254 71.375,50.33C71.256,50.927 71.623,51.394 71.955,51.736C72.035,51.817 72.124,51.893 72.209,51.965C72.285,52.031 72.364,52.098 72.438,52.169C72.586,52.318 72.705,52.495 72.819,52.665C72.879,52.752 72.938,52.841 73.001,52.926C73.459,53.537 73.597,54.069 73.449,54.653C73.342,55.072 73.098,55.602 72.536,55.747C72.33,55.799 72.107,55.826 71.873,55.852C71.655,55.878 71.429,55.904 71.208,55.955C71.015,55.998 70.832,56.055 70.655,56.112C70.408,56.188 70.175,56.262 69.934,56.292C69.511,56.349 69.136,56.26 68.772,56.177C68.452,56.102 68.147,56.032 67.848,56.072L67.848,56.085C68.147,56.044 68.449,56.115 68.77,56.189C69.134,56.274 69.51,56.361 69.936,56.305C70.179,56.274 70.411,56.201 70.659,56.123C70.835,56.068 71.019,56.011 71.212,55.967C71.433,55.917 71.656,55.891 71.874,55.866C72.109,55.838 72.332,55.813 72.539,55.759C72.988,55.643 73.308,55.262 73.461,54.657C73.61,54.068 73.472,53.533 73.012,52.917C72.949,52.833 72.89,52.745 72.831,52.659C72.715,52.487 72.596,52.309 72.445,52.162C72.373,52.088 72.294,52.021 72.218,51.956C72.133,51.883 72.045,51.808 71.965,51.726C71.635,51.388 71.27,50.924 71.389,50.331C71.403,50.257 71.438,50.156 71.492,50.02C71.631,49.678 72.085,48.85 72.453,48.382C72.73,48.031 73.059,47.952 73.735,47.9C74.007,47.879 74.199,47.861 74.389,47.795C74.71,47.685 74.931,47.459 75.145,47.243C75.368,47.014 75.58,46.798 75.897,46.704C76.34,46.57 76.726,46.778 77.098,46.979C77.267,47.07 77.425,47.157 77.585,47.21C78.116,47.387 78.54,47.294 78.883,46.925L78.884,46.922C78.895,46.882 78.894,46.841 78.891,46.802L78.891,46.758L78.889,46.756C78.604,46.381 78.226,46.212 77.86,46.049C77.491,45.885 77.108,45.713 76.815,45.329C76.731,45.216 76.644,45.079 76.553,44.933C76.424,44.728 76.29,44.517 76.139,44.338C76.028,44.209 75.891,44.056 75.71,43.907C75.681,43.882 75.651,43.86 75.623,43.836C75.356,43.623 75.105,43.42 75.24,42.992C75.402,42.481 76.019,42.02 76.562,41.612C76.602,41.582 76.642,41.552 76.681,41.522C76.971,41.303 77.307,41.065 77.614,41.002C77.922,40.94 78.205,41.078 78.456,41.414C78.572,41.568 78.687,41.751 78.799,41.928C78.865,42.034 78.934,42.143 79.003,42.247C79.175,42.504 79.344,42.746 79.522,43.001C79.599,43.111 79.677,43.224 79.758,43.339C79.854,43.478 79.955,43.618 80.055,43.752C80.183,43.927 80.304,44.092 80.408,44.25C80.505,44.397 80.731,44.739 80.622,45.081C80.512,45.427 80.123,45.794 79.748,46.152C79.53,46.359 79.324,46.554 79.174,46.742C79.084,46.855 79.158,47.038 79.232,47.214C79.267,47.298 79.3,47.378 79.314,47.45C79.401,47.848 79.174,48.128 78.934,48.425C78.826,48.559 78.715,48.697 78.627,48.85L78.626,48.853C78.613,48.911 78.591,48.963 78.567,49.014C78.55,49.058 78.531,49.098 78.522,49.138C78.389,49.658 78.539,50.155 78.946,50.539C79.517,51.079 80.5,51.308 81.234,51.077C81.621,50.953 82.008,50.625 82.293,50.178C82.584,49.722 82.818,49.303 82.919,49.057C82.965,48.947 83.027,48.777 83.05,48.587C83.088,48.257 83.057,47.917 83.024,47.557C83.009,47.391 82.993,47.219 82.985,47.05C82.968,46.681 83.024,46.422 83.163,46.239C83.305,46.054 83.534,45.936 83.888,45.871C84.304,45.792 84.71,45.788 85.031,45.857C85.728,46.005 86.485,46.823 86.654,47.606C86.704,47.832 86.663,48.063 86.617,48.28C86.544,48.622 86.401,48.995 86.265,49.355C86.218,49.481 86.169,49.61 86.123,49.737C86.112,49.765 86.103,49.793 86.092,49.822C86.069,49.888 86.044,49.956 86.019,50.024C85.927,50.261 85.814,50.505 85.68,50.749C85.645,50.814 85.602,50.878 85.561,50.942C85.49,51.049 85.416,51.161 85.375,51.279C85.356,51.331 85.34,51.383 85.323,51.432C85.272,51.591 85.224,51.743 85.118,51.896C84.991,52.078 84.835,52.24 84.685,52.388C84.596,52.475 84.528,52.572 84.463,52.665C84.406,52.748 84.347,52.831 84.273,52.91C84.185,53.004 84.085,53.094 83.989,53.179C83.887,53.272 83.781,53.367 83.686,53.47C83.627,53.536 83.568,53.604 83.514,53.671C83.465,53.731 83.414,53.792 83.361,53.851C83.333,53.882 83.301,53.913 83.27,53.941C83.212,53.993 83.154,54.045 83.115,54.115C83.063,54.204 83.024,54.299 82.987,54.392C82.939,54.512 82.89,54.636 82.814,54.745C82.559,55.114 82.115,55.342 81.458,55.446C81.169,55.492 80.852,55.513 80.544,55.534C80.037,55.568 79.559,55.599 79.218,55.733C79.017,55.812 78.837,55.936 78.665,56.056C78.47,56.193 78.285,56.322 78.1,56.357C77.739,56.426 77.504,56.136 77.295,55.879C77.211,55.777 77.133,55.679 77.049,55.607C76.98,55.546 76.919,55.484 76.861,55.421C76.754,55.309 76.654,55.204 76.503,55.119C76.318,55.015 76.12,54.933 75.93,54.855C75.888,54.838 75.847,54.821 75.805,54.804C75.252,54.573 74.934,54.285 74.71,53.809C74.566,53.506 74.512,53.193 74.526,52.761C74.54,52.335 74.166,52.026 73.865,51.777L73.855,51.769C73.791,51.715 73.724,51.663 73.652,51.608C73.331,51.358 72.998,51.099 72.885,50.719C72.848,50.59 72.853,50.47 72.873,50.331C72.967,49.652 73.458,49.138 74.153,48.994C74.38,48.946 74.587,48.921 74.785,48.896C74.974,48.873 75.152,48.849 75.324,48.811C75.423,48.79 75.543,48.754 75.649,48.723C75.7,48.707 75.749,48.693 75.794,48.681C76.064,48.606 76.273,48.621 76.437,48.724C76.741,48.916 76.844,49.396 76.946,50C76.968,50.129 77.012,50.26 77.058,50.398C77.145,50.66 77.235,50.93 77.167,51.183C77.122,51.347 77.019,51.507 76.919,51.664C76.691,52.019 76.476,52.355 76.911,52.71C77.015,52.795 77.121,52.874 77.225,52.95C77.625,53.245 78.003,53.523 78.106,54.081C78.2,54.58 78.522,54.89 79.064,55.003C80.156,55.235 81.017,55.256 81.616,55.069C82.086,54.921 82.442,54.57 82.57,54.126C82.712,53.639 82.939,53.111 83.268,52.508C83.367,52.326 83.492,52.114 83.657,51.925C83.773,51.792 83.913,51.676 84.048,51.564C84.154,51.474 84.265,51.382 84.364,51.282C84.435,51.209 84.508,51.136 84.578,51.067C84.77,50.877 84.968,50.68 85.146,50.472C85.461,50.102 85.699,49.624 85.874,49.012L85.892,48.952C85.999,48.582 86.131,48.123 85.965,47.68C85.756,47.127 85.237,46.733 84.643,46.676C84.184,46.633 83.921,46.831 83.845,47.284C83.807,47.499 83.825,47.709 83.844,47.913C83.849,47.975 83.854,48.034 83.857,48.092C83.863,48.173 83.869,48.252 83.876,48.331C83.893,48.531 83.91,48.738 83.897,48.95C83.851,49.61 83.65,49.858 83.272,50.274C82.89,50.694 82.447,51.159 82.036,51.35C81.777,51.471 81.085,51.738 80.27,51.596C78.871,51.354 78.064,50.668 77.869,49.556C77.849,49.434 77.837,49.322 77.826,49.205C77.812,49.067 77.798,48.926 77.766,48.748C77.716,48.473 77.521,48.175 77.229,47.928C76.939,47.686 76.606,47.533 76.313,47.509C75.973,47.483 75.714,47.68 75.506,47.84L75.476,47.864C75.259,48.029 75.057,48.174 74.774,48.279C74.594,48.345 74.343,48.388 74.101,48.431C73.908,48.464 73.726,48.497 73.577,48.539C72.741,48.778 72.342,49.724 72.208,50.12L72.198,50.152C72.138,50.329 72.064,50.546 72.118,50.8C72.199,51.183 72.509,51.504 72.754,51.706C73.31,52.167 73.652,52.828 73.912,53.415C73.968,53.54 73.994,53.678 74.02,53.812C74.047,53.951 74.073,54.095 74.135,54.229C74.269,54.528 74.434,54.763 74.624,54.928C74.802,55.083 75.02,55.188 75.229,55.29C75.39,55.369 75.556,55.449 75.702,55.551C75.998,55.756 76.288,56.03 76.19,56.496C76.143,56.728 75.926,56.954 75.732,57.152C75.683,57.204 75.637,57.252 75.593,57.3C75.32,57.599 75.148,57.8 75.046,58.135C74.97,58.385 74.964,58.832 75.033,59.154C75.089,59.413 75.157,59.662 75.227,59.901L75.24,59.901C75.171,59.661 75.103,59.412 75.046,59.151C74.978,58.831 74.982,58.387 75.058,58.139Z" style="fill-rule:nonzero;"/>
    </g>
</svg>
